<?xml version="1.0" encoding="utf-8"?>
<!-- Generator: Adobe Illustrator 24.2.0, SVG Export Plug-In . SVG Version: 6.00 Build 0)  -->
<svg version="1.1" id="Layer_1" xmlns="http://www.w3.org/2000/svg" xmlns:xlink="http://www.w3.org/1999/xlink" x="0px" y="0px"
	 viewBox="0 0 24 24" style="enable-background:new 0 0 24 24;" xml:space="preserve">
<style type="text/css">
	.st0{fill:#FFFFFF;}
	.st1{opacity:0.1;fill:#EC008C;}
	.st2{fill:#939598;}
	.st3{fill:#A7A9AC;}
</style>
<path class="st2" d="M22.67,0H1.32C0.59,0,0,0.59,0,1.32v21.35C0,23.41,0.59,24,1.32,24h11.49v-9.29H9.69v-3.62h3.13V8.41
	c0-3.1,1.89-4.79,4.66-4.79c1.33,0,2.46,0.1,2.8,0.14v3.24l-1.92,0c-1.5,0-1.8,0.72-1.8,1.76v2.31h3.59l-0.47,3.62h-3.12V24h6.12
	c0.73,0,1.32-0.59,1.32-1.33V1.32C24,0.59,23.41,0,22.67,0z"/>
</svg>
