<?xml version="1.0" encoding="utf-8"?>
<!-- Generator: Adobe Illustrator 24.2.0, SVG Export Plug-In . SVG Version: 6.00 Build 0)  -->
<svg version="1.1" id="Layer_1" xmlns="http://www.w3.org/2000/svg" xmlns:xlink="http://www.w3.org/1999/xlink" x="0px" y="0px"
	 viewBox="0 0 24 24" style="enable-background:new 0 0 24 24;" xml:space="preserve">
<style type="text/css">
	.st0{fill:#FFFFFF;}
	.st1{opacity:0.1;fill:#EC008C;}
	.st2{fill:#939598;}
	.st3{fill:#A7A9AC;}
</style>
<path class="st2" d="M22.7,0H1.3C0.58,0,0,0.58,0,1.3v21.4C0,23.42,0.58,24,1.3,24h21.4c0.72,0,1.3-0.58,1.3-1.3V1.3
	C24,0.58,23.42,0,22.7,0z M8,19H5V8h3V19z M6.5,6.73c-0.97,0-1.75-0.79-1.75-1.76S5.53,3.2,6.5,3.2s1.75,0.79,1.75,1.76
	S7.47,6.73,6.5,6.73z M20,19h-3v-5.6c0-3.37-4-3.11-4,0V19h-3V8h3v1.76c1.4-2.59,7-2.78,7,2.48V19z"/>
</svg>
