<?xml version="1.0" encoding="utf-8"?>
<!-- Generator: Adobe Illustrator 24.2.0, SVG Export Plug-In . SVG Version: 6.00 Build 0)  -->
<svg version="1.1" id="Layer_1" xmlns="http://www.w3.org/2000/svg" xmlns:xlink="http://www.w3.org/1999/xlink" x="0px" y="0px"
	 viewBox="0 0 24 24" style="enable-background:new 0 0 24 24;" xml:space="preserve">
<style type="text/css">
	.st0{fill:#FFFFFF;}
	.st1{opacity:0.1;fill:#EC008C;}
	.st2{fill:#939598;}
	.st3{fill:#A7A9AC;}
</style>
<path class="st2" d="M24,4.3c-0.88,0.39-1.83,0.66-2.83,0.78c1.02-0.61,1.8-1.57,2.17-2.72c-0.95,0.56-2.01,0.97-3.13,1.2
	c-0.9-0.96-2.18-1.55-3.59-1.55c-3.18,0-5.51,2.97-4.8,6.05C7.73,7.83,4.1,5.87,1.67,2.89C0.38,5.11,1,8,3.19,9.47
	C2.39,9.44,1.63,9.22,0.96,8.85c-0.05,2.28,1.58,4.41,3.95,4.89c-0.69,0.19-1.45,0.23-2.22,0.08c0.63,1.96,2.44,3.38,4.6,3.42
	C5.22,18.87,2.61,19.59,0,19.28c2.18,1.4,4.77,2.21,7.55,2.21c9.14,0,14.31-7.72,13.99-14.65C22.5,6.16,23.34,5.29,24,4.3z"/>
</svg>
