<?xml version="1.0" encoding="utf-8"?>
<!-- Generator: Adobe Illustrator 24.2.0, SVG Export Plug-In . SVG Version: 6.00 Build 0)  -->
<svg version="1.1" id="Layer_1" xmlns="http://www.w3.org/2000/svg" xmlns:xlink="http://www.w3.org/1999/xlink" x="0px" y="0px"
	 viewBox="0 0 40 40" style="enable-background:new 0 0 40 40;" xml:space="preserve">
<style type="text/css">
	.st0{fill:#010101;}
	.st1{fill:#FBB040;}
	.st2{opacity:0.37;fill:#FBB040;}
	.st3{fill-rule:evenodd;clip-rule:evenodd;fill:#010101;}
	.st4{clip-path:url(#SVGID_2_);}
	.st5{fill:none;}
	.st6{fill:#FFFFFF;}
	.st7{fill-rule:evenodd;clip-rule:evenodd;fill:none;stroke:#000000;stroke-miterlimit:10;}
	.st8{fill:none;stroke:#000000;stroke-width:1.4;stroke-linecap:round;stroke-miterlimit:10;}
	.st9{fill:#ED1C24;}
	.st10{fill:none;stroke:#010101;stroke-linecap:round;stroke-miterlimit:10;}
</style>
<g>
	<g>
		<path class="st0" d="M18.3,24.92c0,2.96,2.4,5.36,5.36,5.36s5.36-2.4,5.36-5.36s-2.4-5.36-5.36-5.36
			C20.7,19.56,18.3,21.96,18.3,24.92z M23.66,20.49c2.45,0,4.43,1.98,4.43,4.43s-1.98,4.43-4.43,4.43s-4.43-1.98-4.43-4.43
			C19.23,22.47,21.22,20.49,23.66,20.49z"/>
		<path class="st0" d="M23.56,25.37c0.87,0.2,0.87,0.56,0.87,0.67c0,0.45-0.39,0.66-0.76,0.66c-0.31,0-0.58-0.18-0.7-0.47
			c-0.11-0.23-0.38-0.34-0.62-0.23c-0.22,0.1-0.33,0.36-0.24,0.59c0.2,0.47,0.6,0.83,1.1,0.97v0.29c0,0.26,0.21,0.47,0.47,0.47
			s0.47-0.21,0.47-0.47v-0.28c0.72-0.16,1.23-0.8,1.23-1.53c0-0.45-0.21-1.26-1.59-1.58c-0.86-0.2-0.86-0.56-0.86-0.67
			c0-0.45,0.39-0.66,0.76-0.66c0.31,0,0.58,0.18,0.7,0.47c0.11,0.23,0.38,0.34,0.62,0.23c0.22-0.1,0.33-0.36,0.24-0.59
			c-0.2-0.47-0.6-0.83-1.1-0.97v-0.3c0-0.26-0.21-0.47-0.47-0.47s-0.47,0.21-0.47,0.47v0.3c-0.72,0.16-1.23,0.8-1.23,1.53
			C21.97,24.25,22.18,25.06,23.56,25.37z"/>
	</g>
</g>
<g>
	<path class="st0" d="M19.12,34.36c-1.35,0-2.44-1.09-2.44-2.44c0-1.35,1.09-2.44,2.44-2.44c1.35,0,2.44,1.09,2.44,2.44
		C21.56,33.26,20.47,34.36,19.12,34.36z M19.12,30.48c-0.79,0-1.44,0.64-1.44,1.44c0,0.79,0.64,1.44,1.44,1.44
		c0.79,0,1.44-0.64,1.44-1.44l0,0C20.56,31.12,19.91,30.48,19.12,30.48z"/>
	<path class="st0" d="M22.29,36.94h-6.34c-0.28,0-0.5-0.23-0.5-0.5c0-0.03,0-0.07,0.01-0.1c0.41-2.02,2.39-3.33,4.41-2.91
		c1.47,0.3,2.61,1.45,2.91,2.91c0.06,0.27-0.12,0.54-0.39,0.59C22.35,36.94,22.32,36.94,22.29,36.94z M16.64,35.94h4.95
		c-0.64-1.37-2.26-1.96-3.63-1.33C17.38,34.88,16.91,35.35,16.64,35.94z"/>
	<path class="st0" d="M14.6,31.77c-1.35,0-2.44-1.09-2.44-2.44c0-1.35,1.09-2.44,2.44-2.44c1.35,0,2.44,1.09,2.44,2.44c0,0,0,0,0,0
		C17.04,30.68,15.95,31.77,14.6,31.77z M14.6,27.89c-0.79,0-1.44,0.64-1.44,1.44c0,0.79,0.64,1.44,1.44,1.44
		c0.79,0,1.44-0.64,1.44-1.44c0,0,0,0,0,0C16.03,28.54,15.39,27.89,14.6,27.89z"/>
	<path class="st0" d="M14.6,35.65h-3.88c-0.28,0-0.5-0.22-0.5-0.5c0,0,0,0,0,0c0-1.27,0.53-2.47,1.46-3.33
		c0.8-0.75,1.87-1.13,2.97-1.05c0.28,0.02,0.48,0.27,0.46,0.54s-0.27,0.48-0.54,0.46c-0.81-0.06-1.61,0.23-2.2,0.79
		c-0.59,0.55-0.98,1.29-1.1,2.09h3.34c0.28,0,0.5,0.23,0.5,0.5C15.1,35.43,14.88,35.65,14.6,35.65L14.6,35.65z"/>
</g>
<path class="st0" d="M34.17,20.4l-3.87-3.04v-5.85h0.1c0.28,0,0.51-0.23,0.51-0.51c0-0.28-0.23-0.51-0.51-0.51h-4.49
	c-0.28,0-0.51,0.23-0.51,0.51c0,0.28,0.23,0.51,0.51,0.51h0.1V14l-0.06-0.04l-4.6-3.61c-0.81-0.64-1.93-0.64-2.74,0L5.83,20.4
	c-0.54,0.42-0.85,1.06-0.85,1.75c0,1.22,1,2.21,2.22,2.21c0,0,0,0,0,0c0.49,0,0.98-0.17,1.36-0.47l0.07-0.05v13.8H6.97
	c-0.28,0-0.51,0.23-0.51,0.51s0.23,0.51,0.51,0.51h26.05c0.28,0,0.51-0.23,0.51-0.51s-0.23-0.51-0.51-0.51h-1.66v-13.8l0.07,0.06
	c0.96,0.75,2.35,0.59,3.11-0.37C35.3,22.55,35.13,21.15,34.17,20.4z M30.35,37.63H9.65v-14.6l0.01-0.01L20,14.9l0.02,0.02
	l10.33,8.11V37.63z M33.74,22.88c-0.2,0.25-0.48,0.41-0.8,0.45c-0.32,0.04-0.63-0.05-0.88-0.25l-11.75-9.23
	c-0.19-0.15-0.44-0.14-0.63,0L7.94,23.08c-0.21,0.17-0.47,0.26-0.74,0.26c-0.05,0-0.1,0-0.14-0.01c-0.31-0.04-0.6-0.2-0.8-0.45
	c-0.41-0.52-0.32-1.28,0.2-1.68l12.8-10.06c0.21-0.17,0.47-0.26,0.74-0.26c0.27,0,0.53,0.09,0.74,0.26l5.47,4.3
	c0.09,0.07,0.2,0.11,0.31,0.11c0.28,0,0.51-0.23,0.51-0.51v-3.54h2.25v6.1c0,0.15,0.07,0.3,0.19,0.4l4.06,3.19
	C34.06,21.61,34.15,22.36,33.74,22.88z"/>
</svg>
