<?xml version="1.0" encoding="utf-8"?>
<!-- Generator: Adobe Illustrator 24.2.0, SVG Export Plug-In . SVG Version: 6.00 Build 0)  -->
<svg version="1.1" id="Layer_1" xmlns="http://www.w3.org/2000/svg" xmlns:xlink="http://www.w3.org/1999/xlink" x="0px" y="0px"
	 viewBox="0 0 40 40" style="enable-background:new 0 0 40 40;" xml:space="preserve">
<style type="text/css">
	.st0{fill:#FBB040;}
	.st1{opacity:0.37;fill:#FBB040;}
	.st2{fill:#010101;}
	.st3{fill-rule:evenodd;clip-rule:evenodd;fill:#010101;}
	.st4{clip-path:url(#SVGID_2_);}
	.st5{fill:none;}
	.st6{fill:#010101;stroke:#FFFFFF;stroke-width:0.25;stroke-miterlimit:10;}
	.st7{fill:#010101;stroke:#FFFFFF;stroke-width:0.5;stroke-miterlimit:10;}
	.st8{fill:none;stroke:#000000;stroke-width:1.4;stroke-linecap:round;stroke-miterlimit:10;}
	.st9{fill:#FFFFFF;}
	.st10{fill-rule:evenodd;clip-rule:evenodd;fill:none;stroke:#000000;stroke-miterlimit:10;}
</style>
<g>
	<path class="st2" d="M20,31.78c-1.46,0-2.64-1.18-2.64-2.64c0-1.46,1.18-2.64,2.64-2.64c1.46,0,2.64,1.18,2.64,2.64
		C22.63,30.6,21.46,31.78,20,31.78z M20,27.59c-0.86,0-1.55,0.69-1.55,1.55c0,0.86,0.69,1.55,1.55,1.55s1.55-0.69,1.55-1.55l0,0
		C21.55,28.28,20.86,27.59,20,27.59z"/>
	<path class="st2" d="M24.88,28.99c-1.46,0-2.64-1.18-2.64-2.64c0-1.46,1.18-2.64,2.64-2.64c1.46,0,2.64,1.18,2.64,2.64v0
		C27.52,27.8,26.34,28.98,24.88,28.99z M24.88,24.8c-0.86,0-1.55,0.69-1.55,1.55c0,0.86,0.69,1.55,1.55,1.55
		c0.86,0,1.55-0.69,1.55-1.55C26.43,25.49,25.74,24.8,24.88,24.8z"/>
	<path class="st2" d="M29.07,33.17h-4.19c-0.3,0-0.54-0.24-0.54-0.54c0-0.3,0.24-0.54,0.54-0.54h3.6c-0.13-0.86-0.54-1.66-1.18-2.26
		c-0.64-0.6-1.5-0.91-2.38-0.85c-0.29,0.03-0.56-0.19-0.58-0.48c0-0.01,0-0.01,0-0.02c-0.02-0.3,0.2-0.56,0.5-0.59c0,0,0,0,0,0
		c1.18-0.09,2.34,0.32,3.2,1.13c1,0.93,1.57,2.23,1.57,3.6C29.61,32.93,29.37,33.17,29.07,33.17
		C29.07,33.17,29.07,33.17,29.07,33.17z"/>
	<path class="st2" d="M23.42,34.57h-6.84c-0.3,0-0.54-0.24-0.54-0.54c0-0.04,0-0.07,0.01-0.11c0.45-2.18,2.58-3.59,4.76-3.14
		c1.58,0.32,2.82,1.56,3.14,3.14c0.06,0.29-0.13,0.58-0.42,0.64C23.49,34.56,23.46,34.57,23.42,34.57z M17.33,33.48h5.35
		c-0.69-1.48-2.44-2.12-3.91-1.43C18.13,32.34,17.62,32.85,17.33,33.48z"/>
	<path class="st2" d="M30.85,38.68c-0.3,0-0.54-0.24-0.54-0.54c0,0,0,0,0,0v-15.2c0-0.3,0.24-0.54,0.54-0.54
		c0.3,0,0.54,0.24,0.54,0.54v15.2C31.4,38.43,31.15,38.68,30.85,38.68C30.85,38.68,30.85,38.68,30.85,38.68z"/>
	<path class="st2" d="M9.14,38.68c-0.3,0-0.54-0.24-0.54-0.54c0,0,0,0,0,0v-15.2c0-0.3,0.24-0.54,0.54-0.54s0.54,0.24,0.54,0.54
		v15.2C9.69,38.43,9.45,38.68,9.14,38.68C9.15,38.68,9.15,38.68,9.14,38.68z"/>
	<path class="st2" d="M33.03,38.68H6.97c-0.3,0-0.54-0.24-0.54-0.54c0-0.3,0.24-0.54,0.54-0.54h26.05c0.3,0,0.54,0.24,0.54,0.54
		C33.57,38.43,33.33,38.68,33.03,38.68z"/>
	<path class="st2" d="M7.2,24.39c-1.24,0-2.25-1-2.25-2.25c0-0.69,0.32-1.35,0.86-1.77l12.8-10.06c0.82-0.64,1.97-0.64,2.78,0
		l4.6,3.61V11c0-0.3,0.24-0.54,0.54-0.54c0,0,0,0,0,0h3.26c0.3,0,0.54,0.24,0.54,0.54c0,0,0,0,0,0v6.35l3.85,3.03
		c0.98,0.77,1.15,2.18,0.38,3.16s-2.18,1.15-3.16,0.38l0,0L20,14.94L8.59,23.91C8.2,24.22,7.71,24.39,7.2,24.39z M20,10.92
		c-0.26,0-0.51,0.09-0.72,0.25L6.48,21.23c-0.51,0.4-0.59,1.13-0.2,1.64c0.19,0.24,0.47,0.4,0.78,0.44
		c0.31,0.04,0.62-0.05,0.86-0.24l11.75-9.23c0.2-0.15,0.47-0.15,0.67,0l11.75,9.23c0.51,0.4,1.24,0.31,1.63-0.2
		c0.4-0.51,0.31-1.23-0.2-1.63l-4.06-3.19c-0.13-0.1-0.21-0.26-0.21-0.43v-6.07h-2.18v3.5c0,0.3-0.24,0.54-0.54,0.54
		c-0.12,0-0.24-0.04-0.34-0.12l-5.47-4.3C20.51,11.01,20.26,10.92,20,10.92z"/>
	<path class="st2" d="M30.4,11.54h-4.49c-0.3,0-0.54-0.24-0.54-0.54s0.24-0.54,0.54-0.54h4.49c0.3,0,0.54,0.24,0.54,0.54
		S30.7,11.54,30.4,11.54z"/>
	<path class="st2" d="M15.12,28.99c-1.46,0-2.64-1.18-2.64-2.64s1.18-2.64,2.64-2.64c1.46,0,2.64,1.18,2.64,2.64c0,0,0,0,0,0
		C17.76,27.8,16.58,28.98,15.12,28.99z M15.12,24.8c-0.86,0-1.55,0.69-1.55,1.55c0,0.86,0.69,1.55,1.55,1.55
		c0.86,0,1.55-0.69,1.55-1.55c0,0,0,0,0,0C16.67,25.49,15.98,24.8,15.12,24.8z"/>
	<path class="st2" d="M15.12,33.17h-4.19c-0.3,0-0.54-0.24-0.54-0.54c0,0,0,0,0,0c0-1.37,0.57-2.67,1.57-3.6
		c0.86-0.81,2.02-1.22,3.2-1.13c0.3,0.02,0.52,0.29,0.5,0.59c-0.02,0.3-0.29,0.52-0.59,0.5c-0.88-0.06-1.74,0.24-2.38,0.85
		c-0.64,0.6-1.05,1.39-1.18,2.25h3.6c0.3,0,0.54,0.24,0.54,0.54C15.66,32.93,15.42,33.17,15.12,33.17L15.12,33.17z"/>
</g>
</svg>
