<?xml version="1.0" encoding="utf-8"?>
<!-- Generator: Adobe Illustrator 24.2.0, SVG Export Plug-In . SVG Version: 6.00 Build 0)  -->
<svg version="1.1" id="Layer_1" xmlns="http://www.w3.org/2000/svg" xmlns:xlink="http://www.w3.org/1999/xlink" x="0px" y="0px"
	 viewBox="0 0 40 40" style="enable-background:new 0 0 40 40;" xml:space="preserve">
<style type="text/css">
	.st0{fill:#FBB040;}
	.st1{opacity:0.37;fill:#FBB040;}
	.st2{fill:#010101;}
	.st3{fill-rule:evenodd;clip-rule:evenodd;fill:#010101;}
	.st4{clip-path:url(#SVGID_2_);}
	.st5{fill:none;}
	.st6{fill:#010101;stroke:#FFFFFF;stroke-width:0.25;stroke-miterlimit:10;}
	.st7{fill:#010101;stroke:#FFFFFF;stroke-width:0.5;stroke-miterlimit:10;}
	.st8{fill:none;stroke:#000000;stroke-width:1.4;stroke-linecap:round;stroke-miterlimit:10;}
	.st9{fill:#FFFFFF;}
	.st10{fill-rule:evenodd;clip-rule:evenodd;fill:none;stroke:#000000;stroke-miterlimit:10;}
</style>
<g>
	<g>
		<path class="st2" d="M18.84,9.42c-0.14,0.24-0.06,0.54,0.17,0.68l9.46,5.61c0.24,0.14,0.54,0.06,0.68-0.17
			c0.14-0.24,0.06-0.54-0.17-0.68l-9.46-5.61C19.28,9.11,18.98,9.18,18.84,9.42z"/>
		<path class="st2" d="M14.39,17.09c0.02,0.16,0.11,0.3,0.24,0.38c0.09,0.05,0.2,0.08,0.31,0.07c0.21-0.02,0.46-0.07,0.71-0.13
			c0.16,0.5,0.4,0.91,0.7,1.09c0.58,0.34,1.32-0.11,1.98-0.54c-0.19,0.77-0.36,1.5,0.17,1.82c1.31,0.79,0.41,0.24,2.46,1.47
			c0.14,0.01,0.41,0.15,0.59-0.16c0.23-0.37,0.04-0.54-0.04-0.68c-0.92-0.58-1.52-0.94-2.37-1.48c0.03-0.21,0.11-0.55,0.16-0.75
			c0.17-0.68,0.3-1.22-0.14-1.48c-0.38-0.22-0.75,0.02-1.32,0.39c-0.28,0.18-0.85,0.56-0.99,0.57c-0.09-0.07-0.18-0.27-0.26-0.54
			c0.84-0.33,1.64-0.82,1.96-1.36c0.56-0.94-0.03-1.76-0.52-2.06l0,0c-0.51-0.3-1.73-0.03-2.31,0.95c-0.26,0.44-0.34,1.12-0.27,1.79
			c-0.22,0.06-0.43,0.1-0.63,0.12C14.56,16.57,14.36,16.81,14.39,17.09z M16.59,15.14c0.31-0.52,0.88-0.6,0.94-0.61l0,0
			c0.07,0.04,0.42,0.28,0.17,0.68c-0.16,0.27-0.67,0.6-1.27,0.86C16.42,15.71,16.46,15.36,16.59,15.14z"/>
		<path class="st2" d="M25.7,10.59c0.24,0.14,0.54,0.06,0.68-0.17c0.14-0.24,0.06-0.54-0.17-0.68l-5.16-3.06
			c-0.24-0.14-0.54-0.06-0.68,0.17c-0.14,0.24-0.06,0.54,0.17,0.68L25.7,10.59z"/>
		<path class="st2" d="M33.32,14.12l-1.75-6.85c-0.03-0.13-0.11-0.24-0.23-0.31L22.31,1.6c-0.95-0.56-2.18-0.25-2.74,0.7L9.37,19.5
			c-0.51,0.85-0.3,1.93,0.44,2.55h1.89l-1.13-0.67c-0.47-0.28-0.63-0.9-0.35-1.37l10.21-17.2c0.28-0.47,0.9-0.63,1.37-0.35l8.6,5.1
			l-1.53,2.58c-0.56,0.95-0.25,2.18,0.7,2.74l2.58,1.53l-4.53,7.63h1.16l4.48-7.56C33.33,14.38,33.35,14.24,33.32,14.12z
			 M30.08,12.02c-0.47-0.28-0.63-0.9-0.35-1.37l1.17-1.97l1.15,4.51L30.08,12.02z"/>
		<path class="st2" d="M22.07,14.49c-0.24-0.14-0.54-0.06-0.68,0.17c-0.14,0.24-0.06,0.54,0.17,0.68l5.16,3.06
			c0.24,0.14,0.54,0.06,0.68-0.17c0.14-0.24,0.06-0.54-0.17-0.68L22.07,14.49z"/>
	</g>
	<g>
		<path class="st10" d="M30.74,38.68H8.66c-1.1,0-2-0.9-2-2V23.56c0-1.1,0.9-2,2-2h22.07c1.1,0,2,0.9,2,2v13.12
			C32.74,37.78,31.84,38.68,30.74,38.68z"/>
		<polyline class="st10" points="6.66,26.62 17.89,29.85 21.54,29.85 32.74,26.79 		"/>
		<path class="st10" d="M20.98,29.85h-2.55c-0.57,0-1.04,0.46-1.04,1.04v0.69c0,0.57,0.46,1.04,1.04,1.04h2.55
			c0.57,0,1.04-0.46,1.04-1.04v-0.69C22.02,30.32,21.56,29.85,20.98,29.85z"/>
		<line class="st8" x1="14.57" y1="21.24" x2="24.45" y2="21.24"/>
	</g>
</g>
</svg>
