<?xml version="1.0" encoding="utf-8"?>
<!-- Generator: Adobe Illustrator 24.2.0, SVG Export Plug-In . SVG Version: 6.00 Build 0)  -->
<svg version="1.1" id="Layer_1" xmlns="http://www.w3.org/2000/svg" xmlns:xlink="http://www.w3.org/1999/xlink" x="0px" y="0px"
	 viewBox="0 0 40 40" style="enable-background:new 0 0 40 40;" xml:space="preserve">
<style type="text/css">
	.st0{fill:#FBB040;}
	.st1{opacity:0.37;fill:#FBB040;}
	.st2{fill:#010101;}
	.st3{fill-rule:evenodd;clip-rule:evenodd;fill:#010101;}
	.st4{clip-path:url(#SVGID_2_);}
	.st5{fill:none;}
	.st6{fill:#010101;stroke:#FFFFFF;stroke-width:0.25;stroke-miterlimit:10;}
	.st7{fill:#010101;stroke:#FFFFFF;stroke-width:0.5;stroke-miterlimit:10;}
	.st8{fill:none;stroke:#000000;stroke-width:1.4;stroke-linecap:round;stroke-miterlimit:10;}
	.st9{fill:#FFFFFF;}
	.st10{fill-rule:evenodd;clip-rule:evenodd;fill:none;stroke:#000000;stroke-miterlimit:10;}
</style>
<g>
	<path class="st2" d="M35.71,15.76c0-0.63-0.51-1.14-1.14-1.14h-5.92V13.1c0-0.86-0.7-1.57-1.57-1.57l-3.91,0
		c-0.86,0-1.57,0.7-1.57,1.57v1.53l-5.92,0c-0.63,0-1.14,0.51-1.14,1.13l-0.01,5.4c0,0.18,0.1,0.34,0.26,0.41
		c0.24,0.12,0.49,0.22,0.74,0.33v7.35c0,0.63,0.51,1.14,1.14,1.14h16.92c0.63,0,1.14-0.51,1.14-1.14v-7.46
		c0.25-0.12,0.51-0.24,0.75-0.37c0.15-0.08,0.24-0.24,0.24-0.4L35.71,15.76z M22.52,13.1c0-0.36,0.29-0.66,0.66-0.66h3.91
		c0.36,0,0.66,0.3,0.66,0.66v1.53h-5.22L22.52,13.1z M33.82,29.25c0,0.12-0.1,0.22-0.22,0.22H16.68c-0.12,0-0.22-0.1-0.22-0.22
		v-6.99c1.99,0.73,4.21,1.17,6.63,1.3v0.63c0,0.46,0.37,0.83,0.83,0.83h2.44c0.46,0,0.83-0.37,0.83-0.83v-0.64
		c2.45-0.15,4.67-0.61,6.63-1.38L33.82,29.25z M24,24.12V22.6h2.28v1.51H24z M27.19,22.64v-0.12c0-0.46-0.37-0.83-0.83-0.83h-2.44
		c-0.46,0-0.83,0.37-0.83,0.83v0.13c-2.86-0.16-5.42-0.76-7.62-1.78l0.01-5.11c0-0.12,0.1-0.22,0.22-0.22h18.88
		c0.12,0,0.22,0.1,0.22,0.22l0.01,4.98C32.66,21.82,30.1,22.46,27.19,22.64L27.19,22.64z"/>
</g>
<g>
	<path class="st2" d="M6.72,34.38c0.08,0.07,0.15,0.15,0.23,0.22c0.42,0.37,0.9,0.67,1.42,0.91l0,0c0.14,0.07,0.31,0.07,0.45,0.01
		c2.07-0.98,3.5-3.1,3.5-5.54l0-4.8c0-0.29-0.24-0.53-0.53-0.53l-2.67-0.01l0-10.04l2.87,0l0,0c0.14,0,0.28-0.05,0.38-0.15
		c0.1-0.1,0.16-0.24,0.16-0.38l0-3.69h0c0-0.29-0.24-0.53-0.53-0.53l-6.81,0c-0.29,0-0.53,0.24-0.53,0.53l0,3.69
		c0,0.14,0.05,0.28,0.16,0.38s0.24,0.16,0.38,0.16h2.87l0,10.05H5.4l0,0c-0.14,0-0.28,0.05-0.38,0.15c-0.1,0.1-0.16,0.24-0.16,0.38
		l0.01,2.62c0,0.14,0.05,0.28,0.15,0.38c0.1,0.1,0.24,0.16,0.38,0.16c0.14,0,0.28-0.06,0.38-0.16c0.1-0.1,0.15-0.24,0.15-0.38v-2.09
		h2.13l-0.01,1.91l0,0c0,0.16,0.07,0.31,0.19,0.42c0.16,0.13,0.38,0.16,0.57,0.07c0.19-0.09,0.3-0.28,0.3-0.49v-1.9h2.13l0.01,4.26
		c0,1.94-1.09,3.58-2.67,4.43c-1.59-0.85-2.66-2.42-2.66-4.36l0,0c0-0.14-0.05-0.28-0.15-0.38c-0.1-0.1-0.24-0.16-0.38-0.16
		c-0.14,0-0.28,0.06-0.38,0.16c-0.1,0.1-0.15,0.24-0.15,0.38C4.87,31.78,5.58,33.29,6.72,34.38L6.72,34.38z M5.72,13.55l0-2.64
		l5.75,0l0,2.64L5.72,13.55z"/>
</g>
</svg>
