<?xml version="1.0" encoding="utf-8"?>
<!-- Generator: Adobe Illustrator 24.2.0, SVG Export Plug-In . SVG Version: 6.00 Build 0)  -->
<svg version="1.1" id="Layer_1" xmlns="http://www.w3.org/2000/svg" xmlns:xlink="http://www.w3.org/1999/xlink" x="0px" y="0px"
	 viewBox="0 0 40 40" style="enable-background:new 0 0 40 40;" xml:space="preserve">
<style type="text/css">
	.st0{fill:#FBB040;}
	.st1{opacity:0.37;fill:#FBB040;}
	.st2{fill:#010101;}
	.st3{fill-rule:evenodd;clip-rule:evenodd;fill:#010101;}
	.st4{clip-path:url(#SVGID_2_);}
	.st5{fill:none;}
	.st6{fill:#010101;stroke:#FFFFFF;stroke-width:0.25;stroke-miterlimit:10;}
	.st7{fill:#010101;stroke:#FFFFFF;stroke-width:0.5;stroke-miterlimit:10;}
	.st8{fill:none;stroke:#000000;stroke-width:1.4;stroke-linecap:round;stroke-miterlimit:10;}
	.st9{fill:#FFFFFF;}
	.st10{fill-rule:evenodd;clip-rule:evenodd;fill:none;stroke:#000000;stroke-miterlimit:10;}
</style>
<g>
	<g>
		<path class="st7" d="M29,21.36c1.03,0,1.87,0.84,1.87,1.87v15.3c0,0.52,0.42,0.94,0.94,0.94c0.52,0,0.94-0.42,0.94-0.94l0-15.3h0
			c0-2.07-1.68-3.75-3.75-3.75"/>
		<path class="st7" d="M29,21.36c-1.03,0-1.87,0.84-1.87,1.87v15.3c0,0.52-0.42,0.94-0.94,0.94c-0.52,0-0.94-0.42-0.94-0.94l0-15.3
			h0c0-2.07,1.68-3.75,3.75-3.75"/>
	</g>
	<path class="st2" d="M32.33,15.64c0-1.84-1.49-3.33-3.33-3.33s-3.33,1.49-3.33,3.33s1.49,3.33,3.33,3.33S32.33,17.48,32.33,15.64z
		 M27,15.64c0-1.09,0.91-2,2-2s2,0.91,2,2s-0.91,2-2,2S27,16.73,27,15.64z"/>
	<path class="st2" d="M17.39,15.64c0-1.84-1.49-3.33-3.33-3.33s-3.33,1.49-3.33,3.33s1.49,3.33,3.33,3.33S17.39,17.48,17.39,15.64z
		 M12.06,15.64c0-1.09,0.91-2,2-2s2,0.91,2,2s-0.91,2-2,2S12.06,16.73,12.06,15.64z"/>
	<path class="st8" d="M7.25,38.53l4-11.64c0,0-0.07-2.64,0-3.85c0.06-0.96,0.32-2.62,2.81-2.62l0,0c2.71,0,2.79,1.66,2.81,2.62
		c0.02,1.21,0,3.85,0,3.85l4,11.64"/>
</g>
</svg>
