<?xml version="1.0" encoding="utf-8"?>
<!-- Generator: Adobe Illustrator 24.2.0, SVG Export Plug-In . SVG Version: 6.00 Build 0)  -->
<svg version="1.1" id="Layer_1" xmlns="http://www.w3.org/2000/svg" xmlns:xlink="http://www.w3.org/1999/xlink" x="0px" y="0px"
	 viewBox="0 0 40 40" style="enable-background:new 0 0 40 40;" xml:space="preserve">
<style type="text/css">
	.st0{fill:#010101;}
	.st1{fill:#FBB040;}
	.st2{opacity:0.37;fill:#FBB040;}
	.st3{fill-rule:evenodd;clip-rule:evenodd;fill:#010101;}
	.st4{clip-path:url(#SVGID_2_);}
	.st5{fill:none;}
	.st6{fill:#FFFFFF;}
	.st7{fill-rule:evenodd;clip-rule:evenodd;fill:none;stroke:#000000;stroke-miterlimit:10;}
	.st8{fill:none;stroke:#000000;stroke-width:1.4;stroke-linecap:round;stroke-miterlimit:10;}
	.st9{fill:#ED1C24;}
	.st10{fill:none;stroke:#010101;stroke-linecap:round;stroke-miterlimit:10;}
</style>
<g>
	<g>
		<path class="st0" d="M7.64,36.1c0,0.68,0.27,1.34,0.75,1.82c0.48,0.48,1.14,0.75,1.82,0.75h19.57c0.68,0,1.34-0.27,1.82-0.75
			c0.48-0.48,0.75-1.14,0.75-1.82v-9.79c0-0.68-0.27-1.34-0.75-1.82c-0.48-0.48-1.14-0.75-1.82-0.75h-2.58v-2.58h4.64
			c0.28,0,0.52-0.23,0.52-0.52c0-0.28-0.23-0.52-0.52-0.52h-4.64v-7.73c0-0.68-0.27-1.34-0.75-1.82c-0.48-0.48-1.14-0.75-1.82-0.75
			H16.4c-1.42,0-2.58,1.15-2.58,2.58v7.73H9.96c-1.28,0-2.32,1.04-2.32,2.32v0.17c0,0.03,0,0.06,0,0.09L7.64,36.1z M31.33,31.98
			h-3.65c0.09-0.52,0.05-1.05-0.13-1.55h3.79L31.33,31.98z M14.85,12.41c0-0.85,0.69-1.55,1.55-1.55h8.24
			c0.85,0,1.55,0.69,1.55,1.55v11.33H14.85V12.41z M9.96,21.16h3.86v2.58H9.96c-0.71,0-1.29-0.58-1.29-1.29S9.25,21.16,9.96,21.16
			L9.96,21.16z M8.67,24.38c0.38,0.26,0.83,0.39,1.29,0.39h19.83c0.85,0,1.55,0.69,1.55,1.55v3.09h-4.12
			c-0.08,0-0.16,0.02-0.23,0.06c-0.87-1.03-2.31-1.37-3.55-0.84c-1.24,0.52-2,1.79-1.88,3.13c0.12,1.34,1.1,2.45,2.42,2.74
			c1.31,0.29,2.67-0.31,3.34-1.47h4.02v3.09c0,0.85-0.69,1.55-1.55,1.55H10.21c-0.85,0-1.55-0.69-1.55-1.55L8.67,24.38z M26.7,31.47
			c0,0.83-0.5,1.59-1.27,1.9c-0.77,0.32-1.66,0.14-2.24-0.45c-0.59-0.59-0.77-1.47-0.45-2.24c0.32-0.77,1.07-1.27,1.9-1.27
			c0.55,0,1.07,0.22,1.46,0.6C26.48,30.4,26.7,30.92,26.7,31.47L26.7,31.47z"/>
		<path class="st0" d="M20.52,14.47c0.27,0,0.54,0.11,0.73,0.3c0.19,0.19,0.3,0.46,0.3,0.73c0,0.28,0.23,0.52,0.52,0.52
			c0.28,0,0.52-0.23,0.52-0.52c0-0.94-0.64-1.75-1.55-1.99v-0.79c0-0.28-0.23-0.52-0.52-0.52c-0.28,0-0.52,0.23-0.52,0.52v0.79
			c-0.99,0.27-1.63,1.23-1.5,2.25c0.13,1.02,0.99,1.79,2.02,1.8c0.42,0,0.79,0.25,0.95,0.64c0.16,0.39,0.07,0.83-0.22,1.12
			c-0.29,0.29-0.74,0.38-1.12,0.22c-0.39-0.16-0.64-0.53-0.64-0.95c0-0.28-0.23-0.52-0.52-0.52c-0.28,0-0.52,0.23-0.52,0.52
			c0,0.94,0.64,1.75,1.55,1.99v0.79c0,0.28,0.23,0.52,0.52,0.52c0.28,0,0.52-0.23,0.52-0.52v-0.79c0.99-0.27,1.63-1.23,1.5-2.25
			s-0.99-1.79-2.02-1.8c-0.57,0-1.03-0.46-1.03-1.03C19.49,14.93,19.95,14.47,20.52,14.47L20.52,14.47z"/>
	</g>
</g>
</svg>
