<?xml version="1.0" encoding="utf-8"?>
<!-- Generator: Adobe Illustrator 24.2.0, SVG Export Plug-In . SVG Version: 6.00 Build 0)  -->
<svg version="1.1" id="Layer_1" xmlns="http://www.w3.org/2000/svg" xmlns:xlink="http://www.w3.org/1999/xlink" x="0px" y="0px"
	 viewBox="0 0 40 40" style="enable-background:new 0 0 40 40;" xml:space="preserve">
<style type="text/css">
	.st0{fill:#010101;}
	.st1{fill:#FBB040;}
	.st2{opacity:0.37;fill:#FBB040;}
	.st3{fill-rule:evenodd;clip-rule:evenodd;fill:#010101;}
	.st4{clip-path:url(#SVGID_2_);}
	.st5{fill:none;}
	.st6{fill:#FFFFFF;}
	.st7{fill-rule:evenodd;clip-rule:evenodd;fill:none;stroke:#000000;stroke-miterlimit:10;}
	.st8{fill:none;stroke:#000000;stroke-width:1.4;stroke-linecap:round;stroke-miterlimit:10;}
	.st9{fill:#ED1C24;}
	.st10{fill:none;stroke:#010101;stroke-linecap:round;stroke-miterlimit:10;}
</style>
<g>
	<path class="st0" d="M11.16,18.84c0.19,0.19,0.52,0.19,0.72,0c0.09-0.09,0.14-0.22,0.14-0.36c0-2.1-1.37-3.98-3.4-4.69l-0.59-0.21
		l0.53-0.33c0.91-0.57,1.48-1.58,1.48-2.64c0-1.7-1.39-3.09-3.1-3.09c-1.71,0-3.1,1.38-3.1,3.09c0,1.06,0.57,2.08,1.48,2.64
		l0.53,0.33l-0.59,0.21c-2.03,0.71-3.4,2.59-3.4,4.68c0,0.14,0.05,0.27,0.15,0.37c0.19,0.19,0.52,0.19,0.72,0
		c0.09-0.1,0.14-0.22,0.14-0.36c0-2.23,1.79-3.98,4.08-3.98s4.07,1.75,4.07,3.97C11.01,18.61,11.06,18.74,11.16,18.84z M4.85,10.61
		c0-1.17,0.92-2.08,2.09-2.08c1.17,0,2.09,0.91,2.09,2.08c0,1.17-0.92,2.09-2.09,2.09C5.77,12.7,4.85,11.78,4.85,10.61z"/>
	<path class="st0" d="M36.58,22.07c0-2.1-1.37-3.98-3.4-4.69l-0.59-0.21l0.53-0.33c0.91-0.57,1.48-1.58,1.48-2.64
		c0-1.7-1.39-3.09-3.1-3.09c-1.71,0-3.1,1.38-3.1,3.09c0,1.06,0.57,2.08,1.48,2.64l0.53,0.33l-0.59,0.21
		c-2.03,0.71-3.4,2.59-3.4,4.68c0,0.14,0.05,0.27,0.15,0.37c0.19,0.19,0.52,0.19,0.72,0c0.09-0.09,0.14-0.22,0.14-0.36
		c0-2.23,1.79-3.98,4.07-3.98s4.08,1.75,4.08,3.97c0,0.05,0.01,0.1,0.03,0.14c-0.01,0.03-0.02,0.07-0.02,0.1v5.72
		c0,0.28,0.22,0.5,0.5,0.5s0.5-0.22,0.5-0.5v-5.72c0-0.04-0.01-0.08-0.02-0.11C36.57,22.16,36.58,22.12,36.58,22.07z M29.4,14.2
		c0-1.17,0.92-2.08,2.09-2.08c1.17,0,2.09,0.91,2.09,2.08c0,1.17-0.92,2.09-2.09,2.09C30.32,16.3,29.4,15.38,29.4,14.2z"/>
	<path class="st0" d="M21.64,21.26l-0.72-0.21l0.66-0.35c1.68-0.88,2.72-2.59,2.72-4.46c0-2.78-2.29-5.04-5.09-5.04
		s-5.09,2.26-5.09,5.04c0,1.87,1.04,3.58,2.72,4.46l0.66,0.35l-0.72,0.21c-3.63,1.04-6.17,4.32-6.17,7.99l0,8.93
		c0,0.28,0.22,0.5,0.5,0.5s0.5-0.22,0.5-0.5l0-8.97c0.02-3.14,2.09-5.81,4.99-6.83c-0.02,0.11-0.04,0.23-0.04,0.35
		c0,0.53,0.26,1.03,0.71,1.36l-0.88,9.72c-0.01,0.13,0.03,0.26,0.12,0.36l2.33,2.69c0.09,0.1,0.2,0.16,0.33,0.16
		c0.01,0,0.02,0,0.03,0c0.12,0,0.23-0.04,0.32-0.12c0.02-0.01,0.03-0.03,0.04-0.04l2.33-2.69c0.09-0.1,0.13-0.23,0.12-0.36
		l-0.88-9.72c0.44-0.33,0.71-0.83,0.71-1.36c0-0.12-0.01-0.24-0.04-0.35c2.91,1.03,4.99,3.72,4.99,6.87l0,8.93
		c0,0.28,0.22,0.5,0.5,0.5s0.5-0.22,0.5-0.5V29.2C27.79,25.56,25.25,22.29,21.64,21.26z M15.13,16.24c0-2.23,1.83-4.04,4.09-4.04
		c2.25,0,4.09,1.81,4.09,4.04c0,2.23-1.83,4.04-4.09,4.04C16.97,20.28,15.13,18.47,15.13,16.24z M19.22,35.81l-1.83-2.12l0.84-9.23
		h1.98l0.84,9.23L19.22,35.81z M20.89,22.73c0,0.4-0.35,0.73-0.79,0.77l-1.74,0c-0.46-0.04-0.81-0.37-0.81-0.77
		c0-0.32,0.22-0.6,0.55-0.71c0.17-0.02,0.35-0.05,0.52-0.06h1.2c0.18,0.01,0.35,0.03,0.52,0.06C20.67,22.13,20.89,22.4,20.89,22.73z
		"/>
</g>
</svg>
