<?xml version="1.0" encoding="utf-8"?>
<!-- Generator: Adobe Illustrator 24.2.0, SVG Export Plug-In . SVG Version: 6.00 Build 0)  -->
<svg version="1.1" id="Layer_1" xmlns="http://www.w3.org/2000/svg" xmlns:xlink="http://www.w3.org/1999/xlink" x="0px" y="0px"
	 viewBox="0 0 40 40" style="enable-background:new 0 0 40 40;" xml:space="preserve">
<style type="text/css">
	.st0{fill:#FBB040;}
	.st1{opacity:0.37;fill:#FBB040;}
	.st2{fill:#010101;}
	.st3{fill-rule:evenodd;clip-rule:evenodd;fill:#010101;}
	.st4{clip-path:url(#SVGID_2_);}
	.st5{fill:none;}
	.st6{fill:#010101;stroke:#FFFFFF;stroke-width:0.25;stroke-miterlimit:10;}
	.st7{fill:#010101;stroke:#FFFFFF;stroke-width:0.5;stroke-miterlimit:10;}
	.st8{fill:none;stroke:#000000;stroke-width:1.4;stroke-linecap:round;stroke-miterlimit:10;}
	.st9{fill:#FFFFFF;}
	.st10{fill-rule:evenodd;clip-rule:evenodd;fill:none;stroke:#000000;stroke-miterlimit:10;}
</style>
<g>
	<g>
		<path class="st2" d="M36.32,26.44c-0.93,0-1.73,0.53-2.1,1.33h-2.05l-0.29-0.29c-1.01-1.01-2.16-2.24-3.14-3.62
			c-0.61-0.88-1.65-1.41-2.72-1.41c-2.21,0-4,1.78-4,4v11.99c0,0.37,0.29,0.67,0.67,0.67c0.37,0,0.67-0.29,0.67-0.67V26.44
			c0-1.47,1.2-2.66,2.66-2.66c0.64,0,1.25,0.32,1.63,0.85c1.01,1.47,2.24,2.75,3.28,3.81l0.48,0.48c0.13,0.13,0.29,0.19,0.48,0.19
			h2.77c0.37,0,0.67,0.29,0.67,0.67c0,0.37-0.29,0.67-0.67,0.67h-3.6l-1.92-1.92c-0.19-0.19-0.48-0.24-0.72-0.13
			c-0.24,0.11-0.4,0.35-0.4,0.61v9.43c0,0.37,0.29,0.67,0.67,0.67c0.37,0,0.67-0.29,0.67-0.67V30.6l0.99,0.99
			c0.13,0.13,0.29,0.19,0.48,0.19h3.22v6.66c0,0.37,0.29,0.67,0.67,0.67s0.67-0.29,0.67-0.67v-1.86l0-4.9
			c0.77-0.27,1.33-1.01,1.33-1.89c0-0.75-0.4-1.39-1.01-1.73c0.19-0.16,0.43-0.27,0.67-0.27c0.56,0,1.01,0.45,1.01,1.01v0.35
			c0,0.29,0.19,0.53,0.45,0.61c0.08,0.03,0.13,0.05,0.21,0.05c0.37,0,0.67-0.29,0.67-0.67v-0.35C38.64,27.48,37.6,26.44,36.32,26.44
			L36.32,26.44z"/>
		<path class="st2" d="M29.98,18.45c0-1.84-1.49-3.33-3.33-3.33c-1.84,0-3.33,1.49-3.33,3.33c0,1.84,1.49,3.33,3.33,3.33
			C28.49,21.78,29.98,20.29,29.98,18.45z M24.65,18.45c0-1.09,0.91-2,2-2c1.09,0,2,0.91,2,2c0,1.09-0.91,2-2,2
			C25.56,20.45,24.65,19.55,24.65,18.45z"/>
	</g>
</g>
<g>
	<path class="st7" d="M16.25,21.36c1.03,0,1.87,0.84,1.87,1.87v15.3c0,0.52,0.42,0.94,0.94,0.94c0.52,0,0.94-0.42,0.94-0.94l0-15.3
		h0c0-2.07-1.68-3.75-3.75-3.75"/>
	<path class="st7" d="M16.25,21.36c-1.03,0-1.87,0.84-1.87,1.87v15.3c0,0.52-0.42,0.94-0.94,0.94c-0.52,0-0.94-0.42-0.94-0.94
		l0-15.3h0c0-2.07,1.68-3.75,3.75-3.75"/>
</g>
<path class="st2" d="M19.58,15.74c0-1.84-1.49-3.33-3.33-3.33s-3.33,1.49-3.33,3.33s1.49,3.33,3.33,3.33S19.58,17.58,19.58,15.74z
	 M14.25,15.74c0-1.09,0.91-2,2-2s2,0.91,2,2s-0.91,2-2,2S14.25,16.84,14.25,15.74z"/>
<g>
	<path class="st2" d="M7.3,28.71c0.79,0,1.44,0.64,1.44,1.44v8.22c0,0.4,0.32,0.72,0.72,0.72c0.4,0,0.72-0.32,0.72-0.72l0-8.22h0
		c0-1.59-1.29-2.88-2.88-2.88"/>
	<path class="st2" d="M7.3,28.71c-0.79,0-1.44,0.64-1.44,1.44v8.22c0,0.4-0.32,0.72-0.72,0.72c-0.4,0-0.72-0.32-0.72-0.72l0-8.22h0
		c0-1.59,1.29-2.88,2.88-2.88"/>
</g>
<path class="st2" d="M10.49,23.22c0-1.84-1.49-3.33-3.33-3.33s-3.33,1.49-3.33,3.33c0,1.84,1.49,3.33,3.33,3.33
	S10.49,25.06,10.49,23.22z M5.16,23.22c0-1.09,0.91-2,2-2s2,0.91,2,2s-0.91,2-2,2S5.16,24.31,5.16,23.22z"/>
</svg>
