<?xml version="1.0" encoding="utf-8"?>
<!-- Generator: Adobe Illustrator 24.2.0, SVG Export Plug-In . SVG Version: 6.00 Build 0)  -->
<svg version="1.1" id="Layer_1" xmlns="http://www.w3.org/2000/svg" xmlns:xlink="http://www.w3.org/1999/xlink" x="0px" y="0px"
	 viewBox="0 0 40 40" style="enable-background:new 0 0 40 40;" xml:space="preserve">
<style type="text/css">
	.st0{fill:#010101;}
	.st1{fill:#FBB040;}
	.st2{opacity:0.37;fill:#FBB040;}
	.st3{fill-rule:evenodd;clip-rule:evenodd;fill:#010101;}
	.st4{clip-path:url(#SVGID_2_);}
	.st5{fill:none;}
	.st6{fill:#FFFFFF;}
	.st7{fill-rule:evenodd;clip-rule:evenodd;fill:none;stroke:#000000;stroke-miterlimit:10;}
	.st8{fill:none;stroke:#000000;stroke-width:1.4;stroke-linecap:round;stroke-miterlimit:10;}
	.st9{fill:#ED1C24;}
	.st10{fill:none;stroke:#010101;stroke-linecap:round;stroke-miterlimit:10;}
</style>
<g>
	<path class="st0" d="M16.25,19.92L16.25,19.92C16.25,19.92,16.25,19.92,16.25,19.92C16.25,19.92,16.25,19.92,16.25,19.92
		L16.25,19.92c-1.83,0-3.31,1.49-3.31,3.31v15.3c0,0.28,0.23,0.5,0.5,0.5s0.5-0.23,0.5-0.5v-15.3c0-1.27,1.04-2.31,2.31-2.31
		c1.27,0,2.31,1.04,2.31,2.31v15.3c0,0.28,0.23,0.5,0.5,0.5c0.28,0,0.5-0.23,0.5-0.5l0-15.3C19.56,21.4,18.08,19.92,16.25,19.92z"/>
	<path class="st0" d="M16.25,12.57c-1.75,0-3.17,1.42-3.17,3.17s1.42,3.17,3.17,3.17s3.17-1.42,3.17-3.17S18,12.57,16.25,12.57z
		 M16.25,17.9c-1.19,0-2.16-0.97-2.16-2.16s0.97-2.16,2.16-2.16s2.16,0.97,2.16,2.16S17.44,17.9,16.25,17.9z"/>
</g>
<path class="st0" d="M9.96,30.15c0-1.47-1.19-2.66-2.66-2.66v0c0,0,0,0,0,0c0,0,0,0-0.01,0v0c-1.47,0.01-2.66,1.2-2.66,2.66v8.22
	c0,0.28,0.23,0.51,0.51,0.51c0.28,0,0.5-0.23,0.5-0.51v-8.22c0-0.91,0.74-1.65,1.65-1.65c0.91,0,1.65,0.74,1.65,1.65v8.22
	c0,0.28,0.23,0.51,0.5,0.51c0.28,0,0.51-0.23,0.51-0.51l0-8.01L9.96,30.15z"/>
<path class="st0" d="M7.16,20.05c-1.75,0-3.17,1.42-3.17,3.17s1.42,3.17,3.17,3.17c1.75,0,3.17-1.42,3.17-3.17S8.9,20.05,7.16,20.05
	z M7.16,25.38C5.97,25.38,5,24.41,5,23.22s0.97-2.16,2.16-2.16s2.16,0.97,2.16,2.16S8.35,25.38,7.16,25.38z"/>
<g>
	<g>
		<path class="st0" d="M38.53,29.14v-0.35c-0.05-1.22-1.02-2.18-2.21-2.18v0c-0.85,0-1.6,0.48-1.96,1.24l-0.04,0.09H32.1l-0.34-0.34
			c-0.85-0.85-2.09-2.14-3.16-3.64c-0.58-0.83-1.57-1.34-2.59-1.34c-2.12,0-3.84,1.72-3.84,3.84v11.99c0,0.28,0.22,0.51,0.51,0.51
			s0.51-0.22,0.51-0.51V26.45c0-1.56,1.27-2.82,2.82-2.82c0.7,0,1.35,0.34,1.76,0.92c0.97,1.41,2.14,2.65,3.26,3.79l0.48,0.48
			c0.09,0.1,0.21,0.14,0.37,0.14h2.77c0.46,0,0.83,0.36,0.83,0.83s-0.36,0.83-0.83,0.83h-3.66l-1.96-1.96
			c-0.14-0.14-0.36-0.18-0.54-0.1c-0.19,0.08-0.3,0.27-0.3,0.47v9.43c0,0.28,0.22,0.51,0.51,0.51s0.51-0.22,0.51-0.51v-8.22
			l1.26,1.26c0.1,0.1,0.21,0.14,0.37,0.14h3.38v6.82c0,0.28,0.22,0.51,0.51,0.51s0.51-0.22,0.51-0.51l0-6.88l0.11-0.04
			c0.73-0.25,1.22-0.95,1.22-1.74c0-0.67-0.35-1.26-0.93-1.59l-0.2-0.11l0.17-0.15c0.23-0.19,0.51-0.3,0.77-0.3
			c0.65,0,1.17,0.53,1.17,1.17v0.35c0,0.22,0.13,0.4,0.34,0.46l0.05,0.02c0.05,0.02,0.08,0.03,0.12,0.03
			C38.31,29.64,38.53,29.42,38.53,29.14z"/>
		<path class="st0" d="M26.65,15.29c-1.75,0-3.17,1.42-3.17,3.17s1.42,3.17,3.17,3.17c1.75,0,3.17-1.42,3.17-3.17
			S28.4,15.29,26.65,15.29z M26.65,20.61c-1.19,0-2.16-0.97-2.16-2.16s0.97-2.16,2.16-2.16c1.19,0,2.16,0.97,2.16,2.16
			S27.84,20.61,26.65,20.61z"/>
	</g>
</g>
</svg>
