<?xml version="1.0" encoding="utf-8"?>
<!-- Generator: Adobe Illustrator 24.2.0, SVG Export Plug-In . SVG Version: 6.00 Build 0)  -->
<svg version="1.1" id="Layer_1" xmlns="http://www.w3.org/2000/svg" xmlns:xlink="http://www.w3.org/1999/xlink" x="0px" y="0px"
	 viewBox="0 0 40 40" style="enable-background:new 0 0 40 40;" xml:space="preserve">
<style type="text/css">
	.st0{fill:#FBB040;}
	.st1{opacity:0.37;fill:#FBB040;}
	.st2{fill:#010101;}
	.st3{fill-rule:evenodd;clip-rule:evenodd;fill:#010101;}
	.st4{clip-path:url(#SVGID_2_);}
	.st5{fill:none;}
	.st6{fill:#010101;stroke:#FFFFFF;stroke-width:0.25;stroke-miterlimit:10;}
	.st7{fill:#010101;stroke:#FFFFFF;stroke-width:0.5;stroke-miterlimit:10;}
	.st8{fill:none;stroke:#000000;stroke-width:1.4;stroke-linecap:round;stroke-miterlimit:10;}
	.st9{fill:#FFFFFF;}
	.st10{fill-rule:evenodd;clip-rule:evenodd;fill:none;stroke:#000000;stroke-miterlimit:10;}
</style>
<g>
	<path class="st6" d="M36.05,18.9l-15.77-7.74c-0.18-0.09-0.38-0.09-0.55,0L3.95,18.9C3.74,19,3.6,19.23,3.6,19.47
		c0,0.24,0.14,0.45,0.35,0.57l6.71,3.29v8.01c0,2.35,3.99,4.12,9.27,4.12s9.27-1.77,9.27-4.12v-7.94l2.57-1.26l0.71,0.13v1.54
		c-0.76,0.26-1.3,0.98-1.3,1.83c0,0.59,0.28,1.14,0.69,1.49l-0.65,1.73c-0.13,0.33,0.04,0.69,0.37,0.81
		c0.08,0.03,0.15,0.04,0.23,0.04c0.25,0,0.49-0.15,0.59-0.4l0.66-1.73h0.06h0.1l0.62,1.63c0.1,0.25,0.34,0.4,0.59,0.4
		c0.08,0,0.15-0.01,0.23-0.04c0.33-0.13,0.49-0.49,0.37-0.81l-0.63-1.65c0.4-0.35,0.67-0.88,0.67-1.46c0-0.86-0.55-1.58-1.32-1.84
		v-1.96c0.01-0.09,0.01-0.18-0.01-0.26c-0.01-0.13-0.08-0.24-0.15-0.33l2.46-1.21c0.21-0.1,0.35-0.33,0.35-0.57S36.26,19,36.05,18.9
		L36.05,18.9z M25.82,33.23c-1.56,0.63-3.65,0.97-5.88,0.97c-2.23,0-4.31-0.34-5.88-0.97c-1.34-0.54-2.13-1.25-2.13-1.89v-0.1
		c0.44,0.37,0.98,0.69,1.64,0.98c1.72,0.77,3.97,1.19,6.37,1.19s4.65-0.42,6.37-1.19c0.66-0.29,1.2-0.63,1.64-0.98v0.1
		C27.95,31.98,27.15,32.68,25.82,33.23L25.82,33.23z M27.95,28.18v0.74c0,1.53-3.29,3.23-8.01,3.23c-4.72,0-8.01-1.7-8.01-3.23
		v-4.98l7.8,3.82c0.09,0.04,0.18,0.06,0.28,0.06c0.1,0,0.19-0.03,0.28-0.06L27.95,24L27.95,28.18z M33.13,26.3
		c-0.38,0-0.68-0.3-0.68-0.68s0.3-0.68,0.68-0.68s0.68,0.3,0.68,0.68C33.81,26,33.5,26.3,33.13,26.3z M31.59,20.8L20.1,18.84
		c-0.34-0.06-0.67,0.18-0.73,0.52c-0.06,0.34,0.18,0.67,0.52,0.73l9.76,1.68L20,26.5L5.66,19.47L20,12.43l14.34,7.04L31.59,20.8z"/>
</g>
</svg>
