<?xml version="1.0" encoding="utf-8"?>
<!-- Generator: Adobe Illustrator 24.2.0, SVG Export Plug-In . SVG Version: 6.00 Build 0)  -->
<svg version="1.1" id="Layer_1" xmlns="http://www.w3.org/2000/svg" xmlns:xlink="http://www.w3.org/1999/xlink" x="0px" y="0px"
	 viewBox="0 0 40 40" style="enable-background:new 0 0 40 40;" xml:space="preserve">
<style type="text/css">
	.st0{fill:#010101;}
	.st1{fill:#FBB040;}
	.st2{opacity:0.37;fill:#FBB040;}
	.st3{fill-rule:evenodd;clip-rule:evenodd;fill:#010101;}
	.st4{clip-path:url(#SVGID_2_);}
	.st5{fill:none;}
	.st6{fill:#FFFFFF;}
	.st7{fill-rule:evenodd;clip-rule:evenodd;fill:none;stroke:#000000;stroke-miterlimit:10;}
	.st8{fill:none;stroke:#000000;stroke-width:1.4;stroke-linecap:round;stroke-miterlimit:10;}
	.st9{fill:#ED1C24;}
	.st10{fill:none;stroke:#010101;stroke-linecap:round;stroke-miterlimit:10;}
</style>
<path class="st0" d="M36.27,19.45c0-0.19-0.11-0.36-0.28-0.44l0,0l-15.77-7.74c-0.07-0.04-0.15-0.05-0.22-0.05
	c-0.07,0-0.15,0.02-0.22,0.05L4.01,19.01c-0.17,0.08-0.28,0.26-0.28,0.45c0,0.19,0.11,0.36,0.28,0.45l6.78,3.33v8.09
	c0,2.28,3.93,3.99,9.14,3.99s9.14-1.72,9.14-3.99v-8.03l2.68-1.31l0.86,0.15v1.74l-0.09,0.03c-0.73,0.25-1.21,0.94-1.21,1.71
	c0,0.53,0.24,1.04,0.65,1.39l0.07,0.06l-0.69,1.81c-0.05,0.13-0.04,0.27,0.01,0.39c0.05,0.12,0.15,0.21,0.27,0.25
	c0.27,0.09,0.56-0.04,0.66-0.29l0.69-1.81h0.34l0.65,1.71c0.1,0.25,0.37,0.38,0.66,0.29c0.12-0.05,0.22-0.14,0.28-0.27
	c0.05-0.12,0.05-0.25,0.01-0.37l-0.66-1.74l0.07-0.06c0.4-0.35,0.62-0.85,0.62-1.37c0-0.77-0.5-1.46-1.24-1.72l-0.09-0.03v-2.05
	c0.01-0.1,0.01-0.17-0.01-0.23c-0.02-0.13-0.08-0.22-0.13-0.28l-0.11-0.13l2.61-1.29C36.16,19.83,36.27,19.64,36.27,19.45z
	 M28.08,31.33c0,0.71-0.8,1.44-2.21,2.01c-1.57,0.63-3.67,0.98-5.93,0.98c-2.25,0-4.36-0.35-5.93-0.98
	c-1.41-0.57-2.21-1.3-2.21-2.01v-0.38l0.21,0.18c0.43,0.36,0.98,0.68,1.61,0.97c1.69,0.76,3.93,1.17,6.32,1.17
	c2.38,0,4.63-0.42,6.32-1.17c0.6-0.26,1.14-0.59,1.61-0.97l0.21-0.17V31.33z M28.08,28.92c0,1.59-3.34,3.36-8.14,3.36
	c-4.8,0-8.14-1.77-8.14-3.36v-5.19l7.98,3.91c0.16,0.07,0.28,0.07,0.45,0l7.85-3.86L28.08,28.92z M33.94,25.62
	c0,0.45-0.36,0.81-0.81,0.81c-0.45,0-0.81-0.36-0.81-0.81c0-0.45,0.36-0.81,0.81-0.81C33.58,24.81,33.94,25.17,33.94,25.62z
	 M31.61,20.94l-0.04-0.01l-11.49-1.97c-0.13-0.02-0.26,0.01-0.37,0.08c-0.11,0.08-0.19,0.2-0.21,0.33
	c-0.02,0.13,0.01,0.26,0.08,0.37c0.08,0.11,0.2,0.19,0.33,0.21l10.16,1.75L20,26.65l-0.06-0.03L5.36,19.47L20,12.28l0.06,0.03
	l14.58,7.16L31.61,20.94z"/>
</svg>
