<?xml version="1.0" encoding="utf-8"?>
<!-- Generator: Adobe Illustrator 24.2.0, SVG Export Plug-In . SVG Version: 6.00 Build 0)  -->
<svg version="1.1" id="Layer_1" xmlns="http://www.w3.org/2000/svg" xmlns:xlink="http://www.w3.org/1999/xlink" x="0px" y="0px"
	 viewBox="0 0 40 40" style="enable-background:new 0 0 40 40;" xml:space="preserve">
<style type="text/css">
	.st0{fill:#FBB040;}
	.st1{opacity:0.37;fill:#FBB040;}
	.st2{fill:#010101;}
	.st3{fill-rule:evenodd;clip-rule:evenodd;fill:#010101;}
	.st4{clip-path:url(#SVGID_2_);}
	.st5{fill:none;}
	.st6{fill:#010101;stroke:#FFFFFF;stroke-width:0.25;stroke-miterlimit:10;}
	.st7{fill:#010101;stroke:#FFFFFF;stroke-width:0.5;stroke-miterlimit:10;}
	.st8{fill:none;stroke:#000000;stroke-width:1.4;stroke-linecap:round;stroke-miterlimit:10;}
	.st9{fill:#FFFFFF;}
	.st10{fill-rule:evenodd;clip-rule:evenodd;fill:none;stroke:#000000;stroke-miterlimit:10;}
</style>
<g>
	<path class="st6" d="M31.31,20.6c-1.76,0.05-3.17,1.49-3.18,3.25v4.01H25.2c-1.25,0-2.27,1.02-2.27,2.27v8.21
		c0,0.2,0.08,0.4,0.23,0.55c0.14,0.14,0.34,0.23,0.55,0.23h3.06c0.2,0,0.4-0.08,0.54-0.23c0.14-0.14,0.23-0.34,0.23-0.55v-5.77h3.95
		c1.75,0,3.17-1.42,3.17-3.17v-5.55c0-0.88-0.36-1.71-0.99-2.32C33.03,20.91,32.19,20.58,31.31,20.6L31.31,20.6z M33.11,29.39
		c0,0.9-0.73,1.63-1.63,1.63h-4.72c-0.42,0-0.77,0.34-0.77,0.77v5.77h-1.52v-7.44c0-0.19,0.08-0.38,0.21-0.52
		c0.14-0.14,0.32-0.21,0.52-0.21h3.7c0.2,0,0.4-0.08,0.55-0.23c0.14-0.14,0.23-0.34,0.23-0.55v-4.78c0-0.69,0.41-1.31,1.05-1.58
		c0.64-0.27,1.37-0.13,1.87,0.35c0.33,0.32,0.52,0.77,0.52,1.23L33.11,29.39z M31.39,13.17c-1.32,0-2.51,0.79-3.01,2.01
		c-0.5,1.22-0.23,2.62,0.71,3.55c0.93,0.93,2.34,1.21,3.55,0.71c1.22-0.5,2.01-1.69,2.01-3.01C34.65,14.63,33.19,13.17,31.39,13.17
		L31.39,13.17z M31.39,18.15c-0.7,0-1.32-0.42-1.59-1.06c-0.27-0.64-0.12-1.38,0.37-1.87c0.49-0.49,1.23-0.64,1.87-0.37
		c0.64,0.27,1.06,0.89,1.06,1.59C33.1,17.38,32.34,18.15,31.39,18.15z M19.84,9.21c-1.32,0-2.51,0.79-3.01,2.01
		s-0.23,2.62,0.71,3.55c0.93,0.93,2.34,1.21,3.55,0.71c1.22-0.5,2.01-1.69,2.01-3.01C23.09,10.67,21.64,9.21,19.84,9.21L19.84,9.21z
		 M19.84,14.19c-0.69,0-1.32-0.42-1.59-1.06c-0.27-0.64-0.12-1.38,0.37-1.87c0.49-0.49,1.23-0.64,1.87-0.37
		c0.64,0.27,1.06,0.89,1.06,1.59C21.55,13.42,20.79,14.18,19.84,14.19z M12.47,32.56v5.77c0,0.2,0.08,0.4,0.23,0.55
		c0.14,0.14,0.34,0.23,0.55,0.23h3.06c0.2,0,0.4-0.08,0.55-0.23c0.14-0.14,0.23-0.34,0.23-0.55v-8.21c0-1.25-1.01-2.27-2.27-2.27
		h-2.93v-4.01c-0.02-1.76-1.42-3.2-3.18-3.25c-0.88-0.02-1.72,0.31-2.35,0.92c-0.63,0.61-0.98,1.45-0.99,2.32v5.55
		c0,1.75,1.42,3.17,3.17,3.17H12.47z M6.89,29.39v-5.55c0-0.46,0.19-0.91,0.52-1.23c0.33-0.32,0.78-0.5,1.24-0.49
		c0.93,0.03,1.67,0.79,1.68,1.72v4.78c0,0.2,0.08,0.4,0.23,0.54c0.14,0.14,0.34,0.23,0.55,0.23h3.7c0.19,0,0.38,0.08,0.51,0.21
		c0.14,0.14,0.21,0.32,0.21,0.51v7.44h-1.51v-5.77c0-0.2-0.08-0.4-0.23-0.55s-0.34-0.23-0.54-0.23H8.52
		C7.62,31.02,6.89,30.29,6.89,29.39L6.89,29.39z M8.61,19.69L8.61,19.69c1.32,0,2.51-0.79,3.01-2.01c0.5-1.22,0.23-2.62-0.71-3.55
		c-0.93-0.93-2.34-1.21-3.55-0.71c-1.22,0.51-2.01,1.69-2.01,3.01C5.35,18.23,6.81,19.69,8.61,19.69L8.61,19.69z M8.61,14.71
		L8.61,14.71c0.7,0,1.32,0.42,1.59,1.06c0.27,0.64,0.12,1.38-0.37,1.87c-0.49,0.49-1.23,0.64-1.87,0.37
		c-0.64-0.27-1.06-0.89-1.06-1.59C6.9,15.48,7.66,14.71,8.61,14.71L8.61,14.71z M23.43,22.36v-1.99c0-0.58-0.23-1.14-0.65-1.55
		c-0.41-0.41-0.97-0.64-1.55-0.64h-2.8c-1.21,0-2.18,0.98-2.18,2.18v1.99c0,0.42-0.35,0.77-0.77,0.77c-0.43,0-0.77-0.35-0.77-0.77
		v-1.99c0-2.06,1.67-3.72,3.73-3.73h2.8c0.99,0,1.94,0.39,2.64,1.09c0.7,0.7,1.1,1.65,1.1,2.64v1.99c0,0.42-0.34,0.77-0.77,0.77
		C23.78,23.13,23.43,22.78,23.43,22.36L23.43,22.36z M25.62,26.14h-5v12.18c0,0.42-0.35,0.77-0.77,0.77c-0.42,0-0.77-0.35-0.77-0.77
		V26.14h-5.02c-0.43,0-0.77-0.35-0.77-0.77c0-0.43,0.34-0.77,0.77-0.77h11.56c0.43,0,0.77,0.34,0.77,0.77
		C26.39,25.8,26.05,26.14,25.62,26.14z"/>
</g>
</svg>
