<?xml version="1.0" encoding="utf-8"?>
<!-- Generator: Adobe Illustrator 24.2.0, SVG Export Plug-In . SVG Version: 6.00 Build 0)  -->
<svg version="1.1" id="Layer_1" xmlns="http://www.w3.org/2000/svg" xmlns:xlink="http://www.w3.org/1999/xlink" x="0px" y="0px"
	 viewBox="0 0 40 40" style="enable-background:new 0 0 40 40;" xml:space="preserve">
<style type="text/css">
	.st0{fill:#010101;}
	.st1{fill:#FBB040;}
	.st2{opacity:0.37;fill:#FBB040;}
	.st3{fill-rule:evenodd;clip-rule:evenodd;fill:#010101;}
	.st4{clip-path:url(#SVGID_2_);}
	.st5{fill:none;}
	.st6{fill:#FFFFFF;}
	.st7{fill-rule:evenodd;clip-rule:evenodd;fill:none;stroke:#000000;stroke-miterlimit:10;}
	.st8{fill:none;stroke:#000000;stroke-width:1.4;stroke-linecap:round;stroke-miterlimit:10;}
	.st9{fill:#ED1C24;}
	.st10{fill:none;stroke:#010101;stroke-linecap:round;stroke-miterlimit:10;}
</style>
<g>
	<g>
		<path class="st3" d="M34.44,39.1c0.29,0,0.52-0.23,0.52-0.52c0-0.28-0.23-0.51-0.52-0.51H5.56c-0.29,0-0.52,0.23-0.52,0.51
			c0,0.29,0.23,0.52,0.52,0.52H34.44z"/>
		<path class="st3" d="M12.78,30.85c0.29,0,0.52-0.23,0.52-0.51c0-0.29-0.23-0.52-0.52-0.52H9.69c-0.28,0-0.51,0.23-0.51,0.52
			c0,0.28,0.23,0.51,0.51,0.51H12.78z"/>
		<path class="st3" d="M13.81,21.57c0.28,0,0.51-0.23,0.51-0.51c0-0.29-0.23-0.52-0.51-0.52h-3.09c-0.29,0-0.52,0.23-0.52,0.52
			c0,0.28,0.23,0.51,0.52,0.51H13.81z"/>
		<path class="st3" d="M24.12,28.79c0.29,0,0.52-0.23,0.52-0.52s-0.23-0.52-0.52-0.52h-3.09c-0.29,0-0.52,0.23-0.52,0.52
			s0.23,0.52,0.52,0.52H24.12z"/>
		<path class="st3" d="M21.03,13.32c0.29,0,0.52-0.23,0.52-0.52s-0.23-0.52-0.52-0.52H20c-0.29,0-0.52,0.23-0.52,0.52
			s0.23,0.52,0.52,0.52H21.03z"/>
		<path class="st3" d="M9.17,32.4c0-0.28,0.23-0.51,0.51-0.51h3.09c0.29,0,0.52,0.23,0.52,0.51v6.7h-1.03v-6.19H10.2v6.19H9.17
			L9.17,32.4z"/>
		<path class="st3" d="M20.52,31.37c0-0.29,0.23-0.52,0.52-0.52h3.09c0.29,0,0.52,0.23,0.52,0.52v7.73h-1.03v-7.22h-2.06v7.22h-1.03
			L20.52,31.37z"/>
		<path class="st3" d="M7.11,30.3l4.12-4.36l4.13,4.36v8.8h1.03v-9.01c0-0.13-0.05-0.26-0.14-0.35l-4.64-4.91
			c-0.2-0.22-0.54-0.22-0.75,0l-4.64,4.91c-0.09,0.1-0.14,0.22-0.14,0.35v9.01h1.03L7.11,30.3z"/>
		<path class="st3" d="M8.14,19.99l4.13-4.36l4.12,4.36v5.7h1.03v-5.92c0-0.13-0.05-0.26-0.14-0.36l-4.64-4.91
			c-0.2-0.22-0.55-0.22-0.75,0l-4.64,4.91c-0.09,0.1-0.14,0.22-0.14,0.36v10.04l1.03-1.03L8.14,19.99z"/>
		<path class="st3" d="M16.39,13.8l4.12-4.36l4.13,4.36v4.67l1.03,1.03v-5.92c0-0.13-0.05-0.26-0.14-0.36l-4.64-4.91
			c-0.2-0.22-0.54-0.22-0.75,0l-4.64,4.91c-0.09,0.1-0.14,0.22-0.14,0.36v1.79h1.03L16.39,13.8z"/>
		<path class="st3" d="M15.36,29.82h3.09v1.03h-3.09V29.82z"/>
		<path class="st3" d="M25.67,19.51h1.03v3.09h-1.03V19.51z"/>
		<path class="st3" d="M30.83,13.32h1.03v11.34h-1.03V13.32z"/>
		<path class="st3" d="M32.89,26.73h1.03V39.1h-1.03V26.73z"/>
		<path class="st3" d="M18.45,27.21l4.12-4.36l4.12,4.36V39.1h1.03V26.99c0-0.13-0.05-0.26-0.14-0.35l-4.64-4.91
			c-0.2-0.22-0.55-0.22-0.75,0l-4.64,4.91c-0.09,0.1-0.14,0.22-0.14,0.35V39.1h1.03L18.45,27.21z"/>
		<path class="st3" d="M26.28,9.2l4.11,4.13h-5.75v1.03h7.01c0.46,0,0.69-0.56,0.36-0.88l-5.16-5.16c-0.1-0.1-0.23-0.15-0.36-0.15
			h-5.98V9.2L26.28,9.2z"/>
		<path class="st3" d="M21.12,15.38l4.11,4.13h-8.84v1.03H26.5c0.46,0,0.69-0.56,0.36-0.88l-5.15-5.16c-0.1-0.1-0.23-0.15-0.36-0.15
			h-9.07v1.03L21.12,15.38z"/>
		<path class="st3" d="M28.34,22.6l4.11,4.12H26.7v1.03h7.01c0.46,0,0.69-0.55,0.36-0.88l-5.16-5.16c-0.1-0.1-0.23-0.15-0.36-0.15
			h-5.98v1.03L28.34,22.6z"/>
		<path class="st3" d="M17,25.69h-5.76v-1.03h5.98c0.14,0,0.27,0.05,0.36,0.15l1.37,1.37l-0.5,0.54v0.43L17,25.69z"/>
	</g>
</g>
</svg>
