<?xml version="1.0" encoding="utf-8"?>
<!-- Generator: Adobe Illustrator 24.3.0, SVG Export Plug-In . SVG Version: 6.00 Build 0)  -->
<svg version="1.1" id="Layer_1" xmlns="http://www.w3.org/2000/svg" xmlns:xlink="http://www.w3.org/1999/xlink" x="0px" y="0px"
	 viewBox="0 0 40 40" style="enable-background:new 0 0 40 40;" xml:space="preserve">
<style type="text/css">
	.st0{fill:#010101;}
	.st1{fill:#FBB040;}
	.st2{opacity:0.37;fill:#FBB040;}
	.st3{fill-rule:evenodd;clip-rule:evenodd;fill:#010101;}
	.st4{clip-path:url(#SVGID_2_);}
	.st5{fill:none;}
	.st6{fill:#FFFFFF;}
	.st7{fill-rule:evenodd;clip-rule:evenodd;fill:none;stroke:#000000;stroke-miterlimit:10;}
	.st8{fill:none;stroke:#000000;stroke-width:1.4;stroke-linecap:round;stroke-miterlimit:10;}
	.st9{fill:#ED1C24;}
	.st10{fill:none;stroke:#010101;stroke-linecap:round;stroke-miterlimit:10;}
	
		.st11{fill-rule:evenodd;clip-rule:evenodd;fill:none;stroke:#000000;stroke-linecap:round;stroke-linejoin:round;stroke-miterlimit:10;}
	.st12{fill:none;stroke:#000000;stroke-linecap:round;stroke-linejoin:round;stroke-miterlimit:10;}
	.st13{fill:#010101;stroke:#FFFFFF;stroke-width:0.7;stroke-miterlimit:10;}
	.st14{fill:#EC008C;}
	.st15{fill:#E23E96;}
</style>
<path d="M23.21,15.21c-0.08-0.65-0.67-1.11-1.31-1.03l-5.83,0.7l-0.18-1.47c-0.11-0.88-0.91-1.51-1.79-1.41l-3.89,0.47
	c-0.88,0.11-1.51,0.91-1.41,1.79l0.18,1.47l-5.83,0.7c-0.65,0.08-1.11,0.67-1.03,1.31l0.63,5.37c0.02,0.19,0.15,0.35,0.33,0.42
	c0.24,0.08,0.48,0.16,0.75,0.23l0.87,7.27c0.08,0.65,0.67,1.11,1.31,1.03l16.79-2.02c0.65-0.08,1.11-0.67,1.03-1.31l-0.89-7.38
	c0.25-0.16,0.48-0.3,0.68-0.44c0.15-0.11,0.24-0.29,0.21-0.47L23.21,15.21z M9.79,14.14c-0.04-0.33,0.2-0.64,0.53-0.68L14.21,13
	c0.33-0.04,0.64,0.2,0.68,0.53L15.07,15l-5.1,0.61L9.79,14.14z M14.58,22.18l-2.42,0.29c-0.48,0.06-0.82,0.5-0.77,0.98l0.01,0.08
	c-2.83,0.17-5.42-0.11-7.69-0.85l-0.6-5.05c-0.01-0.09,0.06-0.19,0.16-0.2l18.75-2.25c0.1-0.01,0.19,0.06,0.2,0.16l0.6,4.92
	c-1.97,1.31-4.42,2.24-7.25,2.77l-0.01-0.07C15.49,22.47,15.06,22.12,14.58,22.18z M12.57,24.87l-0.17-1.41l2.17-0.26l0.17,1.41
	L12.57,24.87z M4.87,24.03c2.04,0.47,4.27,0.64,6.64,0.49l0.07,0.59c0.06,0.48,0.5,0.82,0.98,0.77l2.42-0.29
	c0.48-0.06,0.82-0.5,0.77-0.98l-0.07-0.59c2.37-0.44,4.5-1.15,6.33-2.13l0.84,6.96c0.01,0.09-0.06,0.19-0.16,0.2L5.9,31.06
	C5.8,31.07,5.71,31,5.7,30.91L4.87,24.03z"/>
<path class="st0" d="M3.65,34.57c0.29-0.04,0.58-0.07,0.88-0.11c0.79-0.1,1.59-0.2,2.38-0.3c1.17-0.15,2.34-0.3,3.52-0.44
	c1.43-0.18,2.86-0.36,4.29-0.54c1.57-0.2,3.13-0.4,4.7-0.59c1.58-0.2,3.16-0.4,4.74-0.6c1.47-0.19,2.95-0.37,4.43-0.56
	c1.25-0.16,2.49-0.31,3.74-0.47c0.9-0.11,1.79-0.23,2.69-0.34c0.42-0.06,0.85-0.11,1.27-0.16c0.02,0,0.04,0,0.06-0.01
	c0.29-0.04,0.56-0.23,0.55-0.55c-0.01-0.27-0.25-0.59-0.55-0.55c-0.29,0.04-0.58,0.07-0.88,0.11c-0.79,0.1-1.59,0.2-2.38,0.3
	c-1.17,0.15-2.34,0.3-3.52,0.44c-1.43,0.18-2.86,0.36-4.29,0.54c-1.57,0.2-3.13,0.4-4.7,0.59c-1.58,0.2-3.16,0.4-4.74,0.6
	c-1.47,0.19-2.95,0.37-4.43,0.56c-1.25,0.16-2.49,0.31-3.74,0.47c-0.9,0.11-1.79,0.23-2.69,0.34c-0.42,0.06-0.85,0.11-1.27,0.16
	c-0.02,0-0.04,0-0.06,0.01c-0.29,0.04-0.56,0.23-0.55,0.55C3.12,34.29,3.35,34.61,3.65,34.57L3.65,34.57z"/>
<path class="st0" d="M19.24,32.47c-0.41,0.62-0.82,1.23-1.23,1.85c-0.66,0.99-1.32,1.98-1.98,2.97c-0.15,0.23-0.3,0.45-0.45,0.68
	c-0.23,0.35,0.08,0.83,0.48,0.83h2.47h3.94h0.91c0.4,0,0.71-0.47,0.48-0.83c-0.41-0.62-0.82-1.23-1.23-1.85
	c-0.66-0.99-1.32-1.98-1.98-2.97c-0.15-0.23-0.3-0.45-0.45-0.68c-0.16-0.25-0.48-0.35-0.75-0.2c-0.25,0.14-0.36,0.5-0.2,0.75
	c0.41,0.62,0.82,1.23,1.23,1.85c0.66,0.99,1.32,1.98,1.98,2.97c0.15,0.23,0.3,0.45,0.45,0.68c0.16-0.28,0.31-0.55,0.48-0.83H20.9
	h-3.94h-0.91c0.16,0.28,0.31,0.55,0.48,0.83c0.41-0.62,0.82-1.23,1.23-1.85c0.66-0.99,1.32-1.98,1.98-2.97
	c0.15-0.23,0.3-0.45,0.45-0.68c0.16-0.25,0.05-0.61-0.2-0.75C19.72,32.12,19.4,32.23,19.24,32.47L19.24,32.47z"/>
</svg>
