<?xml version="1.0" encoding="utf-8"?>
<!-- Generator: Adobe Illustrator 24.2.0, SVG Export Plug-In . SVG Version: 6.00 Build 0)  -->
<svg version="1.1" id="Layer_1" xmlns="http://www.w3.org/2000/svg" xmlns:xlink="http://www.w3.org/1999/xlink" x="0px" y="0px"
	 viewBox="0 0 40 40" style="enable-background:new 0 0 40 40;" xml:space="preserve">
<style type="text/css">
	.st0{fill:#010101;}
	.st1{fill:#FBB040;}
	.st2{opacity:0.37;fill:#FBB040;}
	.st3{fill-rule:evenodd;clip-rule:evenodd;fill:#010101;}
	.st4{clip-path:url(#SVGID_2_);}
	.st5{fill:none;}
	.st6{fill:#FFFFFF;}
	.st7{fill-rule:evenodd;clip-rule:evenodd;fill:none;stroke:#000000;stroke-miterlimit:10;}
	.st8{fill:none;stroke:#000000;stroke-width:1.4;stroke-linecap:round;stroke-miterlimit:10;}
	.st9{fill:#ED1C24;}
	.st10{fill:none;stroke:#010101;stroke-linecap:round;stroke-miterlimit:10;}
</style>
<g>
	<path class="st0" d="M19.59,33.88c-1.35,0-2.44-1.09-2.44-2.44c0-1.35,1.09-2.44,2.44-2.44c1.35,0,2.44,1.09,2.44,2.44
		C22.03,32.78,20.94,33.88,19.59,33.88z M19.59,30c-0.79,0-1.44,0.64-1.44,1.44c0,0.79,0.64,1.44,1.44,1.44
		c0.79,0,1.44-0.64,1.44-1.44l0,0C21.02,30.64,20.38,30,19.59,30z"/>
	<path class="st0" d="M22.76,36.46h-6.34c-0.28,0-0.5-0.23-0.5-0.5c0-0.03,0-0.07,0.01-0.1c0.41-2.02,2.39-3.33,4.41-2.91
		c1.47,0.3,2.61,1.45,2.91,2.91c0.06,0.27-0.12,0.54-0.39,0.59C22.82,36.46,22.79,36.46,22.76,36.46z M17.11,35.46h4.95
		c-0.64-1.37-2.26-1.96-3.63-1.33C17.85,34.4,17.38,34.87,17.11,35.46z"/>
	<path class="st0" d="M15.07,31.29c-1.35,0-2.44-1.09-2.44-2.44c0-1.35,1.09-2.44,2.44-2.44c1.35,0,2.44,1.09,2.44,2.44c0,0,0,0,0,0
		C17.51,30.2,16.42,31.29,15.07,31.29z M15.07,27.41c-0.79,0-1.44,0.64-1.44,1.44s0.64,1.44,1.44,1.44c0.79,0,1.44-0.64,1.44-1.44
		c0,0,0,0,0,0C16.5,28.05,15.86,27.41,15.07,27.41z"/>
	<path class="st0" d="M15.07,35.17h-3.88c-0.28,0-0.5-0.22-0.5-0.5c0,0,0,0,0,0c0-1.27,0.53-2.47,1.46-3.33
		c0.8-0.75,1.87-1.13,2.97-1.05c0.28,0.02,0.48,0.27,0.46,0.54c-0.02,0.28-0.27,0.48-0.54,0.46c-0.81-0.06-1.61,0.23-2.2,0.79
		c-0.59,0.55-0.98,1.29-1.1,2.09h3.34c0.28,0,0.5,0.23,0.5,0.5C15.57,34.94,15.34,35.17,15.07,35.17L15.07,35.17z"/>
</g>
<path class="st0" d="M34.17,20.4l-3.87-3.04v-5.85h0.1c0.28,0,0.51-0.23,0.51-0.51c0-0.28-0.23-0.51-0.51-0.51h-4.49
	c-0.28,0-0.51,0.23-0.51,0.51c0,0.28,0.23,0.51,0.51,0.51h0.1V14l-0.06-0.04l-4.6-3.61c-0.81-0.64-1.93-0.64-2.74,0L5.83,20.4
	c-0.54,0.42-0.85,1.06-0.85,1.75c0,1.22,1,2.21,2.22,2.21c0,0,0,0,0,0c0.49,0,0.98-0.17,1.36-0.47l0.07-0.05v13.8H6.97
	c-0.28,0-0.51,0.23-0.51,0.51s0.23,0.51,0.51,0.51h26.05c0.28,0,0.51-0.23,0.51-0.51s-0.23-0.51-0.51-0.51h-1.66v-13.8l0.07,0.06
	c0.96,0.75,2.35,0.59,3.11-0.37C35.3,22.55,35.13,21.15,34.17,20.4z M30.35,37.63H9.65v-14.6l0.01-0.01L20,14.9l0.02,0.02
	l10.33,8.11V37.63z M33.74,22.88c-0.2,0.25-0.48,0.41-0.8,0.45c-0.32,0.04-0.63-0.05-0.88-0.25l-11.75-9.23
	c-0.19-0.15-0.44-0.14-0.63,0L7.94,23.08c-0.21,0.17-0.47,0.26-0.74,0.26c-0.05,0-0.1,0-0.14-0.01c-0.31-0.04-0.6-0.2-0.8-0.45
	c-0.41-0.52-0.32-1.28,0.2-1.68l12.8-10.06c0.21-0.17,0.47-0.26,0.74-0.26c0.27,0,0.53,0.09,0.74,0.26l5.47,4.3
	c0.09,0.07,0.2,0.11,0.31,0.11c0.28,0,0.51-0.23,0.51-0.51v-3.54h2.25v6.1c0,0.15,0.07,0.3,0.19,0.4l4.06,3.19
	C34.06,21.61,34.15,22.36,33.74,22.88z"/>
<path class="st0" d="M25.09,30.19c0.3,0,0.54-0.24,0.54-0.54v-0.5l0.09-0.02c0.98-0.22,1.66-1.07,1.65-2.07
	c0-0.61-0.28-1.7-2.17-2.13c-0.88-0.2-1.32-0.56-1.32-1.07c0-0.73,0.62-1.06,1.2-1.06c0,0,0,0,0,0c0.49,0,0.92,0.29,1.11,0.74
	c0.06,0.13,0.17,0.23,0.3,0.28c0.13,0.05,0.28,0.05,0.42-0.01c0.26-0.12,0.39-0.42,0.28-0.69c-0.27-0.64-0.81-1.12-1.49-1.31
	l-0.09-0.02v-0.51c0-0.3-0.24-0.54-0.54-0.54c-0.3,0-0.54,0.24-0.54,0.54v0.52l-0.09,0.02c-0.96,0.21-1.65,1.08-1.65,2.07
	c0,0.61,0.28,1.7,2.17,2.12h0c0.88,0.2,1.33,0.56,1.33,1.07c0,0.73-0.62,1.06-1.2,1.06c-0.49,0-0.92-0.29-1.11-0.74
	c-0.09-0.2-0.29-0.32-0.49-0.32c-0.08,0-0.15,0.02-0.22,0.05c-0.26,0.12-0.39,0.42-0.28,0.69c0.27,0.64,0.81,1.12,1.48,1.31
	l0.09,0.02v0.5C24.55,29.95,24.79,30.19,25.09,30.19z"/>
</svg>
