<?xml version="1.0" encoding="utf-8"?>
<!-- Generator: Adobe Illustrator 24.2.0, SVG Export Plug-In . SVG Version: 6.00 Build 0)  -->
<svg version="1.1" id="Layer_1" xmlns="http://www.w3.org/2000/svg" xmlns:xlink="http://www.w3.org/1999/xlink" x="0px" y="0px"
	 viewBox="0 0 40 40" style="enable-background:new 0 0 40 40;" xml:space="preserve">
<style type="text/css">
	.st0{fill:#010101;}
	.st1{fill:#FBB040;}
	.st2{opacity:0.37;fill:#FBB040;}
	.st3{fill-rule:evenodd;clip-rule:evenodd;fill:#010101;}
	.st4{clip-path:url(#SVGID_2_);}
	.st5{fill:none;}
	.st6{fill:#FFFFFF;}
	.st7{fill-rule:evenodd;clip-rule:evenodd;fill:none;stroke:#000000;stroke-miterlimit:10;}
	.st8{fill:none;stroke:#000000;stroke-width:1.4;stroke-linecap:round;stroke-miterlimit:10;}
	.st9{fill:#ED1C24;}
	.st10{fill:none;stroke:#010101;stroke-linecap:round;stroke-miterlimit:10;}
</style>
<g>
	<path class="st0" d="M16.58,34.53h6.84c0.03,0,0.07,0,0.1-0.01c0.27-0.06,0.45-0.32,0.4-0.6c-0.25-1.21-1.06-2.25-2.19-2.79
		l-0.05-0.02l0.04-0.03c0.56-0.5,0.88-1.2,0.88-1.93c0-1.43-1.17-2.6-2.6-2.6s-2.6,1.17-2.6,2.6c0,0.73,0.32,1.44,0.88,1.94
		l0.04,0.04l-0.05,0.02c-1.14,0.55-1.94,1.57-2.19,2.79c-0.01,0.03-0.01,0.07-0.01,0.1C16.07,34.31,16.3,34.53,16.58,34.53z
		 M20,27.55c0.87,0,1.58,0.71,1.59,1.59c0,0.87-0.71,1.58-1.58,1.59c-0.88,0-1.59-0.72-1.59-1.59C18.41,28.27,19.13,27.55,20,27.55z
		 M17.3,33.47c0.3-0.64,0.81-1.15,1.45-1.45c1.49-0.69,3.27-0.04,3.96,1.45l0.02,0.05h-5.46L17.3,33.47z"/>
	<path class="st0" d="M29.58,32.63c0-1.35-0.57-2.65-1.56-3.57c-0.35-0.33-0.78-0.61-1.29-0.81l-0.05-0.02l0.04-0.04
		c0.49-0.49,0.77-1.15,0.77-1.84c0-1.43-1.17-2.6-2.6-2.6s-2.6,1.17-2.6,2.6c0,1.43,1.17,2.6,2.6,2.6c0,0,0.01,0,0.01,0
		c0.01,0,0.01,0,0.02,0l0.01,0c0.88-0.07,1.76,0.25,2.4,0.86c0.64,0.6,1.06,1.41,1.19,2.28l0.01,0.04h-3.64
		c-0.28,0-0.51,0.23-0.51,0.51c0,0.28,0.23,0.51,0.51,0.51h4.19C29.35,33.14,29.58,32.91,29.58,32.63z M24.89,27.93
		C24.88,27.93,24.88,27.93,24.89,27.93c-0.42,0-0.82-0.17-1.12-0.46c-0.3-0.3-0.46-0.7-0.46-1.12c0-0.87,0.71-1.59,1.59-1.59
		c0.87,0,1.58,0.71,1.59,1.59C26.47,27.22,25.76,27.93,24.89,27.93z"/>
	<path class="st0" d="M34.17,20.4l-3.87-3.04v-5.85h0.1c0.28,0,0.51-0.23,0.51-0.51c0-0.28-0.23-0.51-0.51-0.51h-4.49
		c-0.28,0-0.51,0.23-0.51,0.51c0,0.28,0.23,0.51,0.51,0.51h0.1V14l-0.06-0.04l-4.6-3.61c-0.81-0.64-1.93-0.64-2.74,0L5.83,20.4
		c-0.54,0.42-0.85,1.06-0.85,1.75c0,1.22,1,2.21,2.22,2.21c0,0,0,0,0,0c0.49,0,0.98-0.17,1.36-0.47l0.07-0.05v13.8H6.97
		c-0.28,0-0.51,0.23-0.51,0.51s0.23,0.51,0.51,0.51h26.05c0.28,0,0.51-0.23,0.51-0.51s-0.23-0.51-0.51-0.51h-1.66v-13.8l0.07,0.06
		c0.96,0.75,2.35,0.59,3.11-0.37C35.3,22.55,35.13,21.15,34.17,20.4z M30.35,37.63H9.65v-14.6l0.01-0.01L20,14.9l0.02,0.02
		l10.33,8.11V37.63z M33.74,22.88c-0.2,0.25-0.48,0.41-0.8,0.45c-0.32,0.04-0.63-0.05-0.88-0.25l-11.75-9.23
		c-0.19-0.15-0.44-0.14-0.63,0L7.94,23.08c-0.21,0.17-0.47,0.26-0.74,0.26c-0.05,0-0.1,0-0.14-0.01c-0.31-0.04-0.6-0.2-0.8-0.45
		c-0.41-0.52-0.32-1.28,0.2-1.68l12.8-10.06c0.21-0.17,0.47-0.26,0.74-0.26c0.27,0,0.53,0.09,0.74,0.26l5.47,4.3
		c0.09,0.07,0.2,0.11,0.31,0.11c0.28,0,0.51-0.23,0.51-0.51v-3.54h2.25v6.1c0,0.15,0.07,0.3,0.19,0.4l4.06,3.19
		C34.06,21.61,34.15,22.36,33.74,22.88z"/>
	<path class="st0" d="M15.12,23.75c-1.43,0-2.6,1.17-2.6,2.6c0,0.7,0.27,1.35,0.77,1.84l0.04,0.04l-0.05,0.02
		c-0.5,0.21-0.93,0.48-1.29,0.81c-0.99,0.92-1.56,2.22-1.56,3.57c0,0.28,0.23,0.51,0.51,0.51h4.19c0.28,0,0.51-0.23,0.51-0.51
		c0-0.28-0.23-0.51-0.51-0.51h-3.64l0.01-0.04c0.13-0.87,0.55-1.68,1.19-2.27c0.59-0.56,1.37-0.87,2.17-0.87
		c0.08,0,0.15,0,0.23,0.01c0,0,0,0,0.01,0c0.01,0,0.02,0,0.03,0c1.43,0,2.6-1.17,2.6-2.6C17.72,24.91,16.56,23.75,15.12,23.75z
		 M16.24,27.47c-0.3,0.3-0.7,0.46-1.12,0.46c0,0,0,0,0,0c-0.87,0-1.59-0.71-1.59-1.59c0-0.87,0.71-1.59,1.59-1.59
		c0.87,0,1.58,0.71,1.59,1.59C16.71,26.77,16.54,27.17,16.24,27.47z"/>
</g>
</svg>
