<?xml version="1.0" encoding="utf-8"?>
<!-- Generator: Adobe Illustrator 24.3.0, SVG Export Plug-In . SVG Version: 6.00 Build 0)  -->
<svg version="1.1" id="Layer_1" xmlns="http://www.w3.org/2000/svg" xmlns:xlink="http://www.w3.org/1999/xlink" x="0px" y="0px"
	 viewBox="0 0 40 40" style="enable-background:new 0 0 40 40;" xml:space="preserve">
<style type="text/css">
	.st0{fill:#010101;}
	.st1{fill:#FBB040;}
	.st2{opacity:0.37;fill:#FBB040;}
	.st3{fill-rule:evenodd;clip-rule:evenodd;fill:#010101;}
	.st4{clip-path:url(#SVGID_2_);}
	.st5{fill:none;}
	.st6{fill:#FFFFFF;}
	.st7{fill-rule:evenodd;clip-rule:evenodd;fill:none;stroke:#000000;stroke-miterlimit:10;}
	.st8{fill:none;stroke:#000000;stroke-width:1.4;stroke-linecap:round;stroke-miterlimit:10;}
	.st9{fill:#ED1C24;}
	.st10{fill:none;stroke:#010101;stroke-linecap:round;stroke-miterlimit:10;}
	
		.st11{fill-rule:evenodd;clip-rule:evenodd;fill:none;stroke:#000000;stroke-linecap:round;stroke-linejoin:round;stroke-miterlimit:10;}
	.st12{fill:none;stroke:#000000;stroke-linecap:round;stroke-linejoin:round;stroke-miterlimit:10;}
	.st13{fill:#010101;stroke:#FFFFFF;stroke-width:0.7;stroke-miterlimit:10;}
	.st14{fill:#EC008C;}
	.st15{fill:#E23E96;}
</style>
<g>
	<path class="st0" d="M35.36,19.37l-3.87-3.04v-5.85h0.1c0.28,0,0.51-0.23,0.51-0.51c0-0.28-0.23-0.51-0.51-0.51h-4.49
		c-0.28,0-0.51,0.23-0.51,0.51c0,0.28,0.23,0.51,0.51,0.51h0.1v2.49l-0.06-0.04l-4.6-3.61c-0.81-0.64-1.93-0.64-2.74,0L7.02,19.37
		c-0.54,0.42-0.85,1.06-0.85,1.75c0,1.22,1,2.21,2.22,2.21c0,0,0,0,0,0c0.49,0,0.98-0.17,1.36-0.47l0.07-0.05v13.8H8.17
		c-0.28,0-0.51,0.23-0.51,0.51s0.23,0.51,0.51,0.51h26.05c0.28,0,0.51-0.23,0.51-0.51s-0.23-0.51-0.51-0.51h-1.66V22.8l0.07,0.06
		c0.96,0.75,2.35,0.59,3.11-0.37C36.49,21.52,36.32,20.13,35.36,19.37z M31.54,36.6H10.85V22l0.01-0.01l10.33-8.12l0.02,0.02
		L31.54,22V36.6z M34.93,21.85c-0.2,0.25-0.48,0.41-0.8,0.45c-0.32,0.04-0.63-0.05-0.88-0.25l-11.75-9.23
		c-0.19-0.15-0.44-0.14-0.63,0L9.13,22.06c-0.21,0.17-0.47,0.26-0.74,0.26c-0.05,0-0.1,0-0.14-0.01c-0.31-0.04-0.6-0.2-0.8-0.45
		c-0.41-0.52-0.32-1.28,0.2-1.68l12.8-10.06c0.21-0.17,0.47-0.26,0.74-0.26c0.27,0,0.53,0.09,0.74,0.26l5.47,4.3
		c0.09,0.07,0.2,0.11,0.31,0.11c0.28,0,0.51-0.23,0.51-0.51v-3.54h2.25v6.1c0,0.15,0.07,0.3,0.19,0.4l4.06,3.19
		C35.25,20.58,35.34,21.33,34.93,21.85z"/>
</g>
<g>
	<path d="M25.38,30.9h-0.88c-0.28,0-0.5,0.23-0.5,0.5s0.23,0.5,0.5,0.5h0.88c0.28,0,0.5-0.23,0.5-0.5S25.65,30.9,25.38,30.9z"/>
	<path d="M29.08,29.42h-7.61l-0.46-1.23h1.87c0.66,0,1.19-0.53,1.19-1.19V22.5c0-0.66-0.53-1.19-1.19-1.19h-6.91
		c-0.66,0-1.19,0.53-1.19,1.19v4.49c0,0.66,0.53,1.19,1.19,1.19h1.87l-0.46,1.23h-3.62c-0.28,0-0.5,0.22-0.5,0.5s0.22,0.5,0.5,0.5
		h0.79v7.2h1v-7.2h6.2v1.83c0,0.6,0.49,1.09,1.09,1.09h4.5v0.97c0,0,0,0,0,0v3.25h1v-3.21c0-0.02,0.01-0.03,0.01-0.04v-3.89h0.73
		c0.28,0,0.5-0.22,0.5-0.5S29.36,29.42,29.08,29.42z M15.97,22.33h6.91c0.1,0,0.17,0.08,0.17,0.17v2.94H15.8V22.5
		C15.8,22.4,15.87,22.33,15.97,22.33z M15.8,26.99v-0.55h7.26v0.55c0,0.1-0.08,0.17-0.17,0.17h-6.91
		C15.87,27.16,15.8,27.08,15.8,26.99z M18.9,28.18h1.04l-0.01,0l0.46,1.23h-1.96L18.9,28.18L18.9,28.18z M22.84,32.33
		c-0.05,0-0.08-0.04-0.08-0.08v-1.83h4.59v1.91H22.84z"/>
</g>
</svg>
