<?xml version="1.0" encoding="utf-8"?>
<!-- Generator: Adobe Illustrator 24.3.0, SVG Export Plug-In . SVG Version: 6.00 Build 0)  -->
<svg version="1.1" id="Layer_1" xmlns="http://www.w3.org/2000/svg" xmlns:xlink="http://www.w3.org/1999/xlink" x="0px" y="0px"
	 viewBox="0 0 40 40" style="enable-background:new 0 0 40 40;" xml:space="preserve">
<style type="text/css">
	.st0{fill:#010101;}
	.st1{fill:#FBB040;}
	.st2{opacity:0.37;fill:#FBB040;}
	.st3{fill-rule:evenodd;clip-rule:evenodd;fill:#010101;}
	.st4{clip-path:url(#SVGID_2_);}
	.st5{fill:none;}
	.st6{fill:#FFFFFF;}
	.st7{fill-rule:evenodd;clip-rule:evenodd;fill:none;stroke:#000000;stroke-miterlimit:10;}
	.st8{fill:none;stroke:#000000;stroke-width:1.4;stroke-linecap:round;stroke-miterlimit:10;}
	.st9{fill:#ED1C24;}
	.st10{fill:none;stroke:#010101;stroke-linecap:round;stroke-miterlimit:10;}
	
		.st11{fill-rule:evenodd;clip-rule:evenodd;fill:none;stroke:#000000;stroke-linecap:round;stroke-linejoin:round;stroke-miterlimit:10;}
	.st12{fill:none;stroke:#000000;stroke-linecap:round;stroke-linejoin:round;stroke-miterlimit:10;}
	.st13{fill:#010101;stroke:#FFFFFF;stroke-width:0.7;stroke-miterlimit:10;}
	.st14{fill:#EC008C;}
	.st15{fill:#E23E96;}
</style>
<path d="M18.89,13.21c-0.01-0.77-0.63-1.6-1.62-1.6c-0.9,0-1.61,0.73-1.62,1.65l0.56,5.63l-0.03,0.02l-2.73,1.69
	c-0.57-0.45-1.28-0.74-2.06-0.74v0c0,0,0,0,0,0s0,0,0,0v0c-0.78,0-1.49,0.28-2.06,0.74l-2.75-1.7l0-0.03l0.56-5.63
	c0-0.56-0.35-1.63-1.63-1.63c-0.77,0-1.61,0.61-1.61,1.59l-0.59,6.57c0,0.53,0.27,1.03,0.72,1.33l4.05,2.72v14.65
	c0,0.28,0.23,0.5,0.5,0.5s0.5-0.23,0.5-0.5V23.27l-0.07-0.05v0l-0.87-0.59l-3.53-2.38c-0.16-0.11-0.26-0.29-0.27-0.46l0.59-6.56
	c0-0.05,0-0.58,0.6-0.62c0.33,0,0.61,0.25,0.61,0.56l-0.62,6.25l3.12,1.93l0.18,0.11v0l0.04,0.02l0.15,0.09l0.01-0.01l0.04,0.03
	c0.1,0.07,0.19,0.1,0.29,0.1c0.13,0,0.26-0.05,0.36-0.15l0.01-0.01c0.09-0.1,0.18-0.18,0.26-0.24c0.42-0.31,0.9-0.48,1.41-0.48
	c0.5,0,0.99,0.16,1.4,0.48c0.08,0.06,0.16,0.14,0.24,0.22c0.01,0.01,0.01,0.01,0.02,0.01c0.01,0.01,0.02,0.02,0.03,0.03
	c0.1,0.1,0.23,0.15,0.36,0.15c0.08,0,0.15-0.02,0.24-0.07l0.03-0.01l0.25-0.16l0,0l0.22-0.14l3.12-1.93l-0.62-6.2
	c0.01-0.33,0.28-0.6,0.61-0.6c0.18,0,0.32,0.05,0.42,0.16c0.15,0.15,0.19,0.39,0.18,0.49l0.59,6.49c0,0.2-0.1,0.39-0.27,0.5
	l-3.53,2.38l-0.93,0.62v0l-0.02,0.02v15.19c0,0.28,0.23,0.5,0.5,0.5c0.28,0,0.5-0.23,0.5-0.5l0-14.65l4.05-2.72
	c0.45-0.3,0.71-0.8,0.71-1.38L18.89,13.21z"/>
<g>
	<path class="st0" d="M11.38,12.45c-1.75,0-3.17,1.42-3.17,3.17s1.42,3.17,3.17,3.17s3.17-1.42,3.17-3.17S13.13,12.45,11.38,12.45z
		 M11.38,17.78c-1.19,0-2.16-0.97-2.16-2.16s0.97-2.16,2.16-2.16s2.16,0.97,2.16,2.16S12.57,17.78,11.38,17.78z"/>
</g>
<g>
	<g>
		<path d="M34.78,16.57c0.01,0,0.02,0,0.02,0C34.8,16.57,34.79,16.57,34.78,16.57z"/>
		<path d="M23.39,19.93c0.02,0,0.03,0,0.05,0C23.43,19.93,23.41,19.93,23.39,19.93z"/>
		<path d="M26.23,26.36l0.03-0.04c1.02,0.71,2.21,1.08,3.44,1.08c0.39,0,0.78-0.04,1.17-0.12l0.02,0l0.01,0.02
			c0.08,0.17,0.13,0.34,0.15,0.49c0.01,0.08-0.01,0.18-0.04,0.29c-0.12,0.35-0.11,0.72,0.02,1.07c0.23,0.62,0.83,1.03,1.49,1.03
			c0.06,0,0.12,0,0.19-0.01c0.45-0.05,0.86-0.3,1.12-0.67c0.26-0.37,0.35-0.84,0.24-1.28c-0.1-0.41-0.35-0.76-0.71-0.98
			c-0.27-0.17-0.48-0.37-0.62-0.59c-0.01-0.01-0.01-0.02-0.02-0.03L32.7,26.6l0.02-0.01c1.05-0.61,1.89-1.51,2.42-2.61l0.01-0.03
			l0.02,0.02c0.06,0.04,0.1,0.08,0.14,0.13l0.05,0.06c0.4,0.49,1.12,0.67,1.7,0.41c0.63-0.27,1.01-1.03,0.84-1.7
			c-0.19-0.74-0.91-1.21-1.65-1.08l-0.01,0c-0.04,0.01-0.09,0.02-0.17,0.04c-0.12,0.03-0.23,0.05-0.34,0.05l-0.03,0l0-0.03
			c0.01-0.15,0.02-0.32,0.02-0.49c0-1.27-0.4-2.5-1.15-3.54l-0.01-0.02l0.02-0.01c0.1-0.09,0.19-0.15,0.29-0.19
			c0.04-0.02,0.1-0.03,0.18-0.03c0.03,0,0.06,0,0.08,0c0.31,0,0.6-0.1,0.86-0.29c0.52-0.39,0.71-1.11,0.45-1.7
			c-0.17-0.38-0.48-0.66-0.87-0.79c-0.38-0.13-0.8-0.08-1.16,0.12c-0.33,0.19-0.56,0.5-0.66,0.86c-0.07,0.25-0.17,0.46-0.32,0.62
			c-0.03,0.04-0.07,0.07-0.11,0.11l-0.03,0.03l-0.02-0.01c-1.05-0.78-2.29-1.2-3.59-1.2c-0.41,0-0.83,0.04-1.24,0.13l-0.02,0
			l-0.01-0.02c-0.08-0.17-0.13-0.33-0.15-0.48c-0.01-0.08,0.01-0.18,0.04-0.29c0.12-0.35,0.11-0.72-0.02-1.07
			c-0.23-0.62-0.84-1.03-1.48-1.03c-0.06,0-0.13,0-0.19,0.01c-0.45,0.05-0.86,0.3-1.12,0.67c-0.26,0.37-0.35,0.84-0.24,1.28
			c0.1,0.41,0.35,0.76,0.71,0.98c0.27,0.17,0.48,0.37,0.62,0.59l0.04,0.06l-0.02,0.01c-0.95,0.56-1.72,1.37-2.24,2.33l-0.01,0.02
			l-0.06-0.04c-0.41-0.6-1.14-0.85-1.83-0.63c-0.73,0.23-1.22,1.03-1.1,1.79c0.13,0.83,0.9,1.43,1.74,1.36
			c0.05,0,0.1-0.01,0.17-0.03c0.14-0.03,0.28-0.03,0.37-0.02l0.03,0l-0.01,0.12c-0.01,0.1-0.01,0.2-0.01,0.3
			c0,1.31,0.42,2.56,1.22,3.62L24.88,25l-0.02,0.02c-0.13,0.11-0.27,0.19-0.41,0.23c-0.05,0.01-0.08,0.02-0.09,0.02
			c-0.59,0.15-1,0.65-1.04,1.25c-0.04,0.65,0.45,1.28,1.08,1.41c0.09,0.02,0.17,0.03,0.26,0.03c0,0,0.01,0,0.01,0
			c0.59,0,1.17-0.41,1.34-0.99c0.01-0.04,0.02-0.07,0.03-0.14c0.01-0.07,0.06-0.14,0.09-0.21c0.01-0.02,0.02-0.04,0.02-0.06
			c0.03-0.07,0.04-0.14,0.08-0.2L26.23,26.36z M35.51,22.98c0-0.02,0.01-0.04,0.01-0.06l0.02-0.06l0.02,0
			c0.27,0.02,0.54-0.01,0.81-0.09l0.04-0.01c0.24-0.04,0.47,0.11,0.53,0.34c0.05,0.19-0.09,0.46-0.26,0.54
			c-0.06,0.03-0.12,0.04-0.18,0.04c-0.14,0-0.28-0.07-0.38-0.19c-0.02-0.03-0.05-0.06-0.07-0.08c-0.15-0.15-0.32-0.29-0.52-0.41
			L35.5,23L35.51,22.98z M23.74,20.39c-0.02,0.1-0.03,0.2-0.04,0.3l-0.05-0.01c0.01-0.11,0.03-0.21,0.05-0.34l0.05,0.01L23.74,20.39
			z M23.93,19.54c-0.04,0.12-0.07,0.24-0.09,0.35l-0.02,0.07l-0.02,0c-0.29-0.03-0.53-0.02-0.78,0.03l0,0c-0.02,0-0.04,0-0.06,0
			c-0.3,0-0.56-0.22-0.61-0.53c-0.04-0.26,0.17-0.6,0.42-0.69c0.28-0.09,0.56,0.02,0.73,0.28l0.01,0.01
			c0.02,0.03,0.04,0.05,0.06,0.08c0.12,0.15,0.25,0.27,0.36,0.36l0.01,0.01L23.93,19.54z M32.82,28.08
			c0.13,0.08,0.23,0.21,0.26,0.37c0.04,0.17,0.01,0.34-0.09,0.48c-0.1,0.14-0.25,0.23-0.42,0.25c-0.03,0-0.05,0.01-0.08,0.01
			c-0.17,0-0.31-0.1-0.42-0.23c0,0,0-0.01-0.01-0.01c-0.04-0.05-0.09-0.09-0.11-0.15c-0.05-0.13-0.05-0.27-0.01-0.4
			c0.09-0.25,0.12-0.49,0.09-0.72c-0.01-0.09-0.02-0.18-0.05-0.28l-0.03-0.11l0.07,0.09C32.23,27.64,32.5,27.88,32.82,28.08z
			 M34.48,16.64c0.1-0.18,0.18-0.39,0.24-0.61c0.03-0.11,0.11-0.2,0.22-0.26c0.11-0.06,0.23-0.07,0.33-0.03
			c0.12,0.04,0.21,0.12,0.26,0.24c0.08,0.17,0.02,0.39-0.14,0.51c-0.08,0.06-0.17,0.09-0.26,0.09c-0.03,0-0.05,0-0.08,0
			c-0.2,0-0.38,0.03-0.55,0.1l-0.06,0.03L34.48,16.64z M28.71,16.39l0.01,0.05c-0.01,0-0.03,0-0.05,0.01h0l-0.01-0.05
			C28.68,16.39,28.7,16.39,28.71,16.39z M26.51,14.65c-0.13-0.08-0.23-0.21-0.27-0.37c-0.04-0.17-0.01-0.34,0.09-0.48
			c0.1-0.14,0.25-0.23,0.42-0.25c0.02,0,0.05,0,0.07,0c0.25,0,0.47,0.15,0.55,0.38c0.05,0.13,0.05,0.27,0.01,0.4
			c-0.09,0.25-0.12,0.49-0.09,0.71c0.01,0.1,0.03,0.19,0.05,0.28l0.03,0.11l-0.07-0.09C27.1,15.09,26.83,14.85,26.51,14.65z
			 M25.29,26.01c-0.12,0.21-0.21,0.44-0.25,0.69l-0.01,0.03c-0.05,0.16-0.2,0.27-0.36,0.27c-0.03,0-0.05,0-0.08-0.01
			c-0.16-0.03-0.31-0.23-0.3-0.39c0.01-0.17,0.13-0.31,0.31-0.35c0.03-0.01,0.07-0.02,0.11-0.03c0.19-0.06,0.37-0.15,0.54-0.25
			l0.09-0.06L25.29,26.01z M24.62,21.36c0,0,0-0.01,0-0.01V21.3l0.05,0.04c0.01,0,0.01,0.01,0.02,0.01l0,0
			c0.1,0.08,0.21,0.17,0.29,0.25l0,0c0.08,0.09,0.21,0.15,0.34,0.16c0.13,0.01,0.27-0.03,0.36-0.12c0.2-0.18,0.22-0.5,0.04-0.71
			c0,0-0.37-0.4-0.95-0.71l-0.02-0.01l0-0.02c0.01-0.03,0.02-0.06,0.03-0.09c0.01-0.02,0.02-0.05,0.02-0.07l0.01-0.03l0.03,0.01
			c0.51,0.17,0.91,0.18,0.92,0.18c0.28,0,0.49-0.21,0.5-0.49c0-0.13-0.05-0.26-0.14-0.35c-0.09-0.1-0.22-0.15-0.35-0.15
			c0,0-0.25-0.01-0.57-0.11l-0.03-0.01l0.01-0.03c0.41-0.81,1.02-1.49,1.75-1.96l0.03-0.02l0.01,0.04c0.04,0.31,0,0.49,0,0.5
			c-0.08,0.26,0.07,0.54,0.33,0.62l0.14,0.02c0.21,0,0.41-0.15,0.47-0.35c0,0,0.14-0.49-0.05-1.26l-0.01-0.02l0.02-0.01
			c0.02-0.01,0.04-0.02,0.07-0.02c0.02-0.01,0.04-0.01,0.05-0.02l0.02-0.01l0.01,0.01c0.59,0.63,1.29,0.96,1.29,0.96
			c0.12,0.06,0.26,0.06,0.38,0.02c0.13-0.05,0.23-0.14,0.28-0.26c0.12-0.25,0.01-0.54-0.24-0.66l-0.01,0
			c-0.07-0.04-0.25-0.13-0.47-0.29l-0.06-0.04l0.07-0.01c0.05,0,0.1-0.01,0.15-0.02c0.08-0.01,0.15-0.02,0.24-0.02
			c2.8,0,5.08,2.28,5.08,5.08c0,1.74-0.89,3.34-2.37,4.28l-0.03,0.02l-0.01-0.04c-0.05-0.31,0-0.5,0-0.5
			c0.08-0.26-0.07-0.54-0.33-0.62c-0.26-0.08-0.54,0.07-0.62,0.33c0,0-0.14,0.49,0.05,1.25l0.01,0.02l-0.02,0.01
			c-0.03,0.01-0.05,0.02-0.08,0.03c-0.02,0.01-0.04,0.01-0.06,0.02l-0.02,0l-0.01-0.01c-0.6-0.63-1.27-0.95-1.28-0.96
			c-0.12-0.06-0.26-0.06-0.38-0.02c-0.12,0.05-0.23,0.14-0.28,0.26c-0.11,0.25-0.01,0.54,0.24,0.66c0,0,0.2,0.1,0.45,0.27l0.06,0.04
			l-0.07,0c-0.04,0-0.09,0.01-0.13,0.01c-0.06,0.01-0.12,0.02-0.18,0.02C26.9,26.44,24.62,24.16,24.62,21.36z"/>
	</g>
	<g>
		<path d="M24.67,21.41c0-0.01,0-0.02,0-0.03c0,0,0,0,0,0.01C24.67,21.39,24.67,21.4,24.67,21.41z"/>
		<path class="st6" d="M24.7,21.41h-0.05c0,0,0,0,0,0c0,0,0,0,0-0.01c0,0,0-0.01,0-0.02l0-0.01l0.05,0c0,0,0,0.01,0,0.01
			C24.7,21.4,24.7,21.4,24.7,21.41L24.7,21.41z"/>
	</g>
	<path d="M31.19,19.37c-0.72,0-1.31,0.59-1.31,1.31s0.59,1.31,1.31,1.31c0.35,0,0.68-0.14,0.92-0.38c0.25-0.25,0.38-0.58,0.38-0.93
		C32.5,19.96,31.92,19.37,31.19,19.37z M31.42,20.9c-0.05,0.05-0.13,0.08-0.2,0.08c-0.04,0-0.09-0.01-0.13-0.03
		c-0.12-0.05-0.2-0.16-0.2-0.28c0-0.17,0.14-0.31,0.31-0.31s0.31,0.14,0.31,0.31C31.51,20.77,31.48,20.85,31.42,20.9z"/>
	<circle cx="27.95" cy="23.2" r="0.63"/>
</g>
</svg>
