<?xml version="1.0" encoding="utf-8"?>
<!-- Generator: Adobe Illustrator 24.2.0, SVG Export Plug-In . SVG Version: 6.00 Build 0)  -->
<svg version="1.1" id="Layer_1" xmlns="http://www.w3.org/2000/svg" xmlns:xlink="http://www.w3.org/1999/xlink" x="0px" y="0px"
	 viewBox="0 0 40 40" style="enable-background:new 0 0 40 40;" xml:space="preserve">
<style type="text/css">
	.st0{fill:#010101;}
	.st1{fill:#FBB040;}
	.st2{opacity:0.37;fill:#FBB040;}
	.st3{fill-rule:evenodd;clip-rule:evenodd;fill:#010101;}
	.st4{clip-path:url(#SVGID_2_);}
	.st5{fill:none;}
	.st6{fill:#FFFFFF;}
	.st7{fill-rule:evenodd;clip-rule:evenodd;fill:none;stroke:#000000;stroke-miterlimit:10;}
	.st8{fill:none;stroke:#000000;stroke-width:1.4;stroke-linecap:round;stroke-miterlimit:10;}
	.st9{fill:#ED1C24;}
	.st10{fill:none;stroke:#010101;stroke-linecap:round;stroke-miterlimit:10;}
</style>
<path d="M35.76,15.76c0-0.65-0.53-1.18-1.18-1.18h-5.87V13.1c0-0.89-0.72-1.61-1.61-1.61l-3.91,0c-0.89,0-1.61,0.72-1.61,1.61v1.48
	l-5.87,0c-0.65,0-1.18,0.53-1.18,1.18l-0.01,5.4c0,0.19,0.11,0.37,0.28,0.45c0.23,0.11,0.46,0.21,0.71,0.32v7.32
	c0,0.65,0.53,1.18,1.18,1.18h16.92c0.65,0,1.18-0.53,1.18-1.18v-7.43c0.27-0.12,0.51-0.24,0.73-0.36c0.17-0.09,0.27-0.26,0.27-0.44
	L35.76,15.76z M22.57,13.1c0-0.34,0.27-0.61,0.61-0.61h3.91c0.33,0,0.61,0.28,0.61,0.61v1.48h-5.13L22.57,13.1z M26.36,21.65h-2.44
	c-0.48,0-0.88,0.39-0.88,0.88v0.08c-2.83-0.17-5.36-0.76-7.53-1.76l0.01-5.08c0-0.09,0.08-0.18,0.18-0.18h18.88
	c0.1,0,0.18,0.08,0.18,0.18l0.01,4.95c-2.12,1.06-4.65,1.69-7.53,1.88v-0.07C27.23,22.04,26.84,21.65,26.36,21.65z M24.04,24.07
	v-1.42h2.19v1.42H24.04z M16.5,22.33c1.96,0.71,4.16,1.14,6.54,1.28v0.59c0,0.48,0.39,0.88,0.88,0.88h2.44
	c0.48,0,0.88-0.39,0.88-0.88v-0.6c2.41-0.15,4.61-0.61,6.54-1.35v7.01c0,0.09-0.08,0.18-0.18,0.18H16.68c-0.1,0-0.18-0.08-0.18-0.18
	V22.33z"/>
<path class="st0" d="M12.5,10.36L12.5,10.36c-0.01-0.26-0.23-0.48-0.5-0.48l-6.81,0c-0.28,0-0.5,0.23-0.5,0.5l0,3.69
	c0,0.13,0.05,0.27,0.15,0.36c0.1,0.1,0.22,0.15,0.36,0.15c0,0,0,0,0,0h2.9l0,10.1l-2.69,0c0,0,0,0,0,0c-0.13,0-0.26,0.05-0.35,0.15
	c-0.1,0.1-0.15,0.23-0.15,0.36l0.01,2.62c0,0.14,0.05,0.27,0.15,0.36c0.1,0.1,0.22,0.15,0.36,0.15c0,0,0,0,0,0
	c0.14,0,0.27-0.06,0.36-0.15c0.09-0.1,0.15-0.23,0.14-0.37v-2.11h2.18v0.02l-0.01,1.9h0v0.01c0,0.15,0.06,0.3,0.18,0.4
	c0.15,0.13,0.36,0.15,0.54,0.06C8.99,28,9.1,27.82,9.1,27.62v-1.93h2.18v0.02l0.01,4.26c0,1.85-1.03,3.56-2.69,4.46l-0.01,0.01
	l-0.01-0.01c-1.66-0.89-2.66-2.51-2.67-4.34l0,0v-0.04c0-0.14-0.05-0.27-0.15-0.36c-0.09-0.1-0.23-0.15-0.36-0.15c0,0,0,0,0,0
	c-0.13,0-0.27,0.06-0.36,0.15c-0.09,0.1-0.15,0.23-0.14,0.36c0,1.64,0.65,3.17,1.84,4.31c0.02,0.02,0.05,0.04,0.07,0.07
	c0.05,0.05,0.1,0.1,0.16,0.15c0.41,0.35,0.89,0.66,1.41,0.91c0.14,0.07,0.29,0.07,0.43,0.01c2.12-1,3.49-3.17,3.49-5.52l0-4.8
	c0-0.28-0.23-0.5-0.5-0.5L9.1,24.68l0-10.09l2.9,0c0,0,0,0,0,0c0.13,0,0.26-0.05,0.36-0.15c0.09-0.09,0.15-0.23,0.15-0.36
	L12.5,10.36z M11.49,13.58l-5.8,0v-2.69l5.8,0V13.58z"/>
</svg>
