<?xml version="1.0" encoding="utf-8"?>
<!-- Generator: Adobe Illustrator 24.2.0, SVG Export Plug-In . SVG Version: 6.00 Build 0)  -->
<svg version="1.1" id="Layer_1" xmlns="http://www.w3.org/2000/svg" xmlns:xlink="http://www.w3.org/1999/xlink" x="0px" y="0px"
	 viewBox="0 0 40 40" style="enable-background:new 0 0 40 40;" xml:space="preserve">
<style type="text/css">
	.st0{fill:#010101;}
	.st1{fill:#FBB040;}
	.st2{opacity:0.37;fill:#FBB040;}
	.st3{fill-rule:evenodd;clip-rule:evenodd;fill:#010101;}
	.st4{clip-path:url(#SVGID_2_);}
	.st5{fill:none;}
	.st6{fill:#FFFFFF;}
	.st7{fill-rule:evenodd;clip-rule:evenodd;fill:none;stroke:#000000;stroke-miterlimit:10;}
	.st8{fill:none;stroke:#000000;stroke-width:1.4;stroke-linecap:round;stroke-miterlimit:10;}
	.st9{fill:#ED1C24;}
	.st10{fill:none;stroke:#010101;stroke-linecap:round;stroke-miterlimit:10;}
	
		.st11{fill-rule:evenodd;clip-rule:evenodd;fill:none;stroke:#000000;stroke-linecap:round;stroke-linejoin:round;stroke-miterlimit:10;}
	.st12{fill:none;stroke:#000000;stroke-linecap:round;stroke-linejoin:round;stroke-miterlimit:10;}
	.st13{fill:#010101;stroke:#FFFFFF;stroke-width:0.7;stroke-miterlimit:10;}
	.st14{fill:#EC008C;}
	.st15{fill:#E23E96;}
</style>
<g>
	<path class="st0" d="M25.94,29.77c0-1.47-1.19-2.66-2.66-2.66v0c0,0,0,0,0,0c0,0,0,0-0.01,0v0c-1.47,0.01-2.66,1.2-2.66,2.66v8.22
		c0,0.28,0.23,0.51,0.51,0.51c0.28,0,0.5-0.23,0.5-0.51v-8.22c0-0.91,0.74-1.65,1.65-1.65c0.91,0,1.65,0.74,1.65,1.65v8.22
		c0,0.28,0.23,0.51,0.5,0.51c0.28,0,0.51-0.23,0.51-0.51l0-8.01L25.94,29.77z"/>
	<path class="st0" d="M23.14,19.67c-1.75,0-3.17,1.42-3.17,3.17s1.42,3.17,3.17,3.17c1.75,0,3.17-1.42,3.17-3.17
		S24.89,19.67,23.14,19.67z M23.14,25c-1.19,0-2.16-0.97-2.16-2.16s0.97-2.16,2.16-2.16s2.16,0.97,2.16,2.16S24.33,25,23.14,25z"/>
	<path class="st0" d="M18.4,4.73c-3.23,0-5.87,2.63-5.87,5.87s2.63,5.87,5.87,5.87s5.87-2.63,5.87-5.87S21.63,4.73,18.4,4.73z
		 M18.4,15.42c-2.67,0-4.83-2.17-4.83-4.83c0-2.67,2.17-4.83,4.83-4.83c2.67,0,4.83,2.17,4.83,4.83
		C23.23,13.26,21.07,15.42,18.4,15.42z"/>
	<g>
		<path d="M20.07,8.57l-1.6,1.56c-0.01,0.01-0.01,0.01-0.01,0.02s0,0.01,0.01,0.01h0.17c0.57,0,1.01,0.15,1.33,0.45
			s0.48,0.74,0.48,1.3c0,0.67-0.2,1.19-0.61,1.56c-0.41,0.37-0.98,0.55-1.72,0.55c-0.42,0-0.83-0.06-1.24-0.17
			c-0.13-0.04-0.23-0.11-0.31-0.22c-0.08-0.11-0.12-0.23-0.12-0.37c0-0.11,0.05-0.19,0.14-0.25c0.09-0.06,0.19-0.07,0.29-0.04
			c0.46,0.16,0.88,0.25,1.25,0.25c0.43,0,0.77-0.11,1.01-0.34c0.24-0.23,0.36-0.55,0.36-0.98c0-0.36-0.13-0.62-0.38-0.8
			c-0.26-0.17-0.67-0.26-1.25-0.26H17.6c-0.1,0-0.19-0.04-0.26-0.11c-0.07-0.07-0.11-0.16-0.11-0.26c0-0.25,0.09-0.46,0.26-0.63
			l1.62-1.53c0.01-0.01,0.01-0.01,0.01-0.02s0-0.01-0.01-0.01h-2.32c-0.11,0-0.21-0.04-0.28-0.11c-0.08-0.08-0.11-0.17-0.11-0.28
			c0-0.11,0.04-0.21,0.11-0.28c0.08-0.08,0.17-0.11,0.28-0.11h3.17c0.11,0,0.21,0.04,0.28,0.11c0.08,0.08,0.11,0.17,0.11,0.28
			C20.36,8.18,20.26,8.4,20.07,8.57z"/>
	</g>
	<g>
		<path class="st0" d="M8.36,16.04c-1.75,0-3.17,1.42-3.17,3.17s1.42,3.17,3.17,3.17s3.17-1.42,3.17-3.17S10.11,16.04,8.36,16.04z
			 M8.36,21.36c-1.19,0-2.16-0.97-2.16-2.16s0.97-2.16,2.16-2.16s2.16,0.97,2.16,2.16S9.55,21.36,8.36,21.36z"/>
		<path class="st0" d="M8.36,23.38L8.36,23.38C8.36,23.38,8.36,23.38,8.36,23.38C8.36,23.38,8.36,23.38,8.36,23.38L8.36,23.38
			c-1.83,0-3.31,1.49-3.31,3.31v5.23v0.04v6.14c0,0.28,0.23,0.5,0.5,0.5s0.5-0.23,0.5-0.5v-6.14v-0.04v-5.23
			c0-1.27,1.04-2.31,2.31-2.31c1.27,0,2.31,1.04,2.31,2.31v5.23v0.04v6.14c0,0.28,0.23,0.5,0.5,0.5c0.28,0,0.5-0.23,0.5-0.5l0-6.14
			h0l0-5.27C11.67,24.87,10.18,23.38,8.36,23.38z"/>
	</g>
	<g>
		<path class="st0" d="M31.64,15.56c-1.75,0-3.17,1.42-3.17,3.17s1.42,3.17,3.17,3.17c1.75,0,3.17-1.42,3.17-3.17
			S33.39,15.56,31.64,15.56z M31.64,20.89c-1.19,0-2.16-0.97-2.16-2.16s0.97-2.16,2.16-2.16c1.19,0,2.16,0.97,2.16,2.16
			S32.83,20.89,31.64,20.89z"/>
		<path class="st0" d="M31.64,22.91L31.64,22.91C31.64,22.91,31.64,22.91,31.64,22.91C31.64,22.91,31.64,22.91,31.64,22.91
			L31.64,22.91c-1.83,0-3.31,1.49-3.31,3.31v8.21h0V38c0,0.28,0.23,0.5,0.5,0.5s0.5-0.23,0.5-0.5v-3.71h0v-8.07
			c0-1.27,1.04-2.31,2.31-2.31c1.27,0,2.31,1.04,2.31,2.31v8.07v0.14V38c0,0.28,0.23,0.5,0.5,0.5c0.28,0,0.5-0.23,0.5-0.5l0-3.57h0
			l0-8.21C34.95,24.39,33.47,22.91,31.64,22.91z"/>
	</g>
</g>
</svg>
