<?xml version="1.0" encoding="utf-8"?>
<!-- Generator: Adobe Illustrator 24.3.0, SVG Export Plug-In . SVG Version: 6.00 Build 0)  -->
<svg version="1.1" id="Layer_1" xmlns="http://www.w3.org/2000/svg" xmlns:xlink="http://www.w3.org/1999/xlink" x="0px" y="0px"
	 viewBox="0 0 40 40" style="enable-background:new 0 0 40 40;" xml:space="preserve">
<style type="text/css">
	.st0{fill:#010101;}
	.st1{fill:#FBB040;}
	.st2{opacity:0.37;fill:#FBB040;}
	.st3{fill-rule:evenodd;clip-rule:evenodd;fill:#010101;}
	.st4{clip-path:url(#SVGID_2_);}
	.st5{fill:none;}
	.st6{fill:#FFFFFF;}
	.st7{fill-rule:evenodd;clip-rule:evenodd;fill:none;stroke:#000000;stroke-miterlimit:10;}
	.st8{fill:none;stroke:#000000;stroke-width:1.4;stroke-linecap:round;stroke-miterlimit:10;}
	.st9{fill:#ED1C24;}
	.st10{fill:none;stroke:#010101;stroke-linecap:round;stroke-miterlimit:10;}
	
		.st11{fill-rule:evenodd;clip-rule:evenodd;fill:none;stroke:#000000;stroke-linecap:round;stroke-linejoin:round;stroke-miterlimit:10;}
	.st12{fill:none;stroke:#000000;stroke-linecap:round;stroke-linejoin:round;stroke-miterlimit:10;}
	.st13{fill:#010101;stroke:#FFFFFF;stroke-width:0.7;stroke-miterlimit:10;}
	.st14{fill:#EC008C;}
	.st15{fill:#E23E96;}
</style>
<g>
	<path class="st0" d="M29.12,31.78c0-1.47-1.19-2.66-2.66-2.66v0c0,0,0,0,0,0c0,0,0,0-0.01,0v0c-1.47,0.01-2.66,1.2-2.66,2.66v6.22
		c0,0.28,0.23,0.51,0.51,0.51c0.28,0,0.5-0.23,0.5-0.51v-6.22c0-0.91,0.74-1.65,1.65-1.65c0.91,0,1.65,0.74,1.65,1.65v6.22
		c0,0.28,0.23,0.51,0.5,0.51c0.28,0,0.51-0.23,0.51-0.51l0-6.01L29.12,31.78z"/>
	<path class="st0" d="M26.32,22.29c-1.64,0-2.97,1.33-2.97,2.97c0,1.64,1.33,2.97,2.97,2.97c1.64,0,2.97-1.33,2.97-2.97
		C29.28,23.62,27.95,22.29,26.32,22.29z M26.32,27.23c-1.09,0-1.98-0.89-1.98-1.98c0-1.09,0.89-1.98,1.98-1.98
		c1.09,0,1.98,0.89,1.98,1.98C28.29,26.35,27.41,27.23,26.32,27.23z"/>
</g>
<g>
	<path class="st0" d="M21.77,28.78c0-1.47-1.19-2.66-2.66-2.66v0c0,0,0,0,0,0c0,0,0,0-0.01,0v0c-1.47,0.01-2.66,1.2-2.66,2.66v9.22
		c0,0.28,0.23,0.51,0.51,0.51c0.28,0,0.5-0.23,0.5-0.51v-9.22c0-0.91,0.74-1.65,1.65-1.65c0.91,0,1.65,0.74,1.65,1.65v9.22
		c0,0.28,0.23,0.51,0.5,0.51c0.28,0,0.51-0.23,0.51-0.51l0-9.01L21.77,28.78z"/>
	<path class="st0" d="M18.98,19.2c-1.64,0-2.97,1.33-2.97,2.97c0,1.64,1.33,2.97,2.97,2.97c1.64,0,2.97-1.33,2.97-2.97
		C21.94,20.53,20.61,19.2,18.98,19.2z M18.98,24.12c-1.08,0-1.95-0.88-1.95-1.95c0-1.08,0.88-1.95,1.95-1.95
		c1.08,0,1.95,0.88,1.95,1.95C20.93,23.25,20.05,24.12,18.98,24.12z"/>
</g>
<g>
	<path class="st0" d="M35.39,19.4L35.39,19.4C35.39,19.4,35.38,19.4,35.39,19.4C35.38,19.4,35.38,19.4,35.39,19.4L35.39,19.4
		c-1.83,0-3.31,1.49-3.31,3.31v15.3c0,0.28,0.23,0.5,0.5,0.5s0.5-0.23,0.5-0.5v-15.3c0-1.27,1.04-2.31,2.31-2.31
		c1.27,0,2.31,1.04,2.31,2.31v15.3c0,0.28,0.23,0.5,0.5,0.5c0.28,0,0.5-0.23,0.5-0.5l0-15.3C38.7,20.89,37.21,19.4,35.39,19.4z"/>
	<path class="st0" d="M35.39,12.06c-1.75,0-3.17,1.42-3.17,3.17s1.42,3.17,3.17,3.17s3.17-1.42,3.17-3.17S37.13,12.06,35.39,12.06z
		 M35.39,17.39c-1.19,0-2.16-0.97-2.16-2.16s0.97-2.16,2.16-2.16s2.16,0.97,2.16,2.16S36.58,17.39,35.39,17.39z"/>
</g>
<g>
	<path class="st0" d="M7.85,18.4c1.75,0,3.17-1.42,3.17-3.17s-1.42-3.17-3.17-3.17s-3.17,1.42-3.17,3.17S6.1,18.4,7.85,18.4z
		 M7.85,13.07c1.19,0,2.16,0.97,2.16,2.16s-0.97,2.16-2.16,2.16s-2.16-0.97-2.16-2.16S6.66,13.07,7.85,13.07z"/>
	<path class="st0" d="M14.13,37.85l-2.97-11.56c0-0.01,0-0.04,0-0.06h0v-0.27c0-0.07,0-0.14,0-0.23h0l0-3.03
		c0-1.83-1.49-3.31-3.31-3.31v0c0,0,0,0,0,0s0,0,0,0v0c-1.83,0-3.31,1.49-3.31,3.31v3.52h0c0,0.02,0,0.05,0,0.06L1.57,37.85
		c-0.09,0.26,0.05,0.55,0.31,0.64s0.55-0.05,0.64-0.31l3.03-11.72l0-0.09c0-0.01,0.01-0.25,0-0.62h0v-3.03
		c0-1.27,1.04-2.31,2.31-2.31c1.27,0,2.31,1.04,2.31,2.31v3.52h0c0,0.08,0,0.13,0,0.13l0,0.09l3.03,11.72
		c0.07,0.21,0.27,0.34,0.47,0.34c0.05,0,0.11-0.01,0.16-0.03C14.08,38.4,14.22,38.11,14.13,37.85z"/>
</g>
</svg>
