<?xml version="1.0" encoding="utf-8"?>
<!-- Generator: Adobe Illustrator 24.2.0, SVG Export Plug-In . SVG Version: 6.00 Build 0)  -->
<svg version="1.1" id="Layer_1" xmlns="http://www.w3.org/2000/svg" xmlns:xlink="http://www.w3.org/1999/xlink" x="0px" y="0px"
	 viewBox="0 0 40 40" style="enable-background:new 0 0 40 40;" xml:space="preserve">
<style type="text/css">
	.st0{fill:#010101;}
	.st1{fill:#FBB040;}
	.st2{opacity:0.37;fill:#FBB040;}
	.st3{fill-rule:evenodd;clip-rule:evenodd;fill:#010101;}
	.st4{clip-path:url(#SVGID_2_);}
	.st5{fill:none;}
	.st6{fill:#FFFFFF;}
	.st7{fill-rule:evenodd;clip-rule:evenodd;fill:none;stroke:#000000;stroke-miterlimit:10;}
	.st8{fill:none;stroke:#000000;stroke-width:1.4;stroke-linecap:round;stroke-miterlimit:10;}
	.st9{fill:#ED1C24;}
	.st10{fill:none;stroke:#010101;stroke-linecap:round;stroke-miterlimit:10;}
</style>
<path class="st0" d="M14.06,12.57c-1.75,0-3.17,1.42-3.17,3.17s1.42,3.17,3.17,3.17s3.17-1.42,3.17-3.17S15.81,12.57,14.06,12.57z
	 M14.06,17.9c-1.19,0-2.16-0.97-2.16-2.16s0.97-2.16,2.16-2.16s2.16,0.97,2.16,2.16S15.25,17.9,14.06,17.9z"/>
<g>
	<path class="st0" d="M29,19.92L29,19.92C29,19.92,29,19.92,29,19.92C29,19.92,29,19.92,29,19.92L29,19.92
		c-1.83,0-3.31,1.49-3.31,3.31v15.3c0,0.28,0.23,0.5,0.5,0.5s0.5-0.23,0.5-0.5v-15.3c0-1.27,1.04-2.31,2.31-2.31
		c1.27,0,2.31,1.04,2.31,2.31v15.3c0,0.28,0.23,0.5,0.5,0.5c0.28,0,0.5-0.23,0.5-0.5l0-15.3C32.31,21.4,30.82,19.92,29,19.92z"/>
	<path class="st0" d="M29,12.57c-1.75,0-3.17,1.42-3.17,3.17s1.42,3.17,3.17,3.17s3.17-1.42,3.17-3.17S30.75,12.57,29,12.57z
		 M29,17.9c-1.19,0-2.16-0.97-2.16-2.16s0.97-2.16,2.16-2.16s2.16,0.97,2.16,2.16S30.19,17.9,29,17.9z"/>
</g>
<circle class="st9" cx="18.95" cy="32.94" r="0.5"/>
<g>
	<path d="M11.76,26.26h-1c0,0.25-0.01,0.45,0,0.55L6.78,38.36C6.69,38.63,6.83,38.91,7.09,39s0.55-0.05,0.64-0.31l4.03-11.72l0-0.09
		C11.75,26.87,11.76,26.62,11.76,26.26z"/>
	<path d="M21.34,38.36l-3.97-11.56c0-0.1,0-0.3,0-0.55h-1c0,0.38,0,0.63,0,0.63l0,0.09l4.03,11.72c0.07,0.21,0.27,0.34,0.47,0.34
		c0.05,0,0.11-0.01,0.16-0.03C21.29,38.91,21.43,38.63,21.34,38.36z"/>
</g>
<path class="st0" d="M11.75,26.75v-3.52c0-1.27,1.04-2.31,2.31-2.31c1.27,0,2.31,1.04,2.31,2.31v3.52h1l0-3.52
	c0-1.83-1.49-3.31-3.31-3.31v0c0,0,0,0,0,0s0,0,0,0v0c-1.83,0-3.31,1.49-3.31,3.31v3.52H11.75z"/>
</svg>
