<?xml version="1.0" encoding="utf-8"?>
<!-- Generator: Adobe Illustrator 24.2.0, SVG Export Plug-In . SVG Version: 6.00 Build 0)  -->
<svg version="1.1" id="Layer_1" xmlns="http://www.w3.org/2000/svg" xmlns:xlink="http://www.w3.org/1999/xlink" x="0px" y="0px"
	 viewBox="0 0 40 40" style="enable-background:new 0 0 40 40;" xml:space="preserve">
<style type="text/css">
	.st0{fill:#010101;}
	.st1{fill:#FBB040;}
	.st2{opacity:0.37;fill:#FBB040;}
	.st3{fill-rule:evenodd;clip-rule:evenodd;fill:#010101;}
	.st4{clip-path:url(#SVGID_2_);}
	.st5{fill:none;}
	.st6{fill:#FFFFFF;}
	.st7{fill-rule:evenodd;clip-rule:evenodd;fill:none;stroke:#000000;stroke-miterlimit:10;}
	.st8{fill:none;stroke:#000000;stroke-width:1.4;stroke-linecap:round;stroke-miterlimit:10;}
	.st9{fill:#ED1C24;}
	.st10{fill:none;stroke:#010101;stroke-linecap:round;stroke-miterlimit:10;}
</style>
<g>
	<g>
		<path class="st0" d="M19.84,24.7c-3.82,0-6.93,3.12-6.94,6.94c0,3.82,3.11,6.94,6.94,6.94c3.82,0,6.94-3.11,6.94-6.94
			S23.67,24.7,19.84,24.7z M19.84,37.56c-3.27,0-5.93-2.66-5.93-5.93c0-3.27,2.66-5.93,5.93-5.93c3.27,0,5.93,2.66,5.93,5.93
			S23.11,37.56,19.84,37.56z"/>
		<path class="st0" d="M18.03,23.63c0.28,0,0.5-0.23,0.5-0.5v-5.88c0-1.69-3.53-2.46-6.81-2.46c-3.38,0-6.81,0.84-6.81,2.44v14.05
			c0,1.63,3.27,2.32,6.07,2.42c0,0,0.01,0,0.01,0c0.29,0,0.52-0.22,0.52-0.49c0-0.28-0.22-0.51-0.49-0.51
			c-3.33-0.12-5.06-0.97-5.1-1.41l0-2.22l0.16,0.08c1.13,0.59,3,0.95,5.13,1c0,0,0,0,0.01,0c0.14,0,0.27-0.05,0.36-0.14
			c0.1-0.09,0.15-0.22,0.15-0.35c0-0.28-0.22-0.5-0.5-0.51c-3.45-0.08-5.27-0.95-5.32-1.42l0-2.15l0.16,0.08
			c1.21,0.63,3.32,1.01,5.65,1.01c0.3,0,0.62,0,0.92-0.02c0.28-0.01,0.49-0.25,0.48-0.52c-0.01-0.27-0.23-0.48-0.5-0.48
			c-0.01,0-0.01,0-0.02,0c-0.3,0.01-0.6,0.02-0.88,0.02c-3.71,0-5.75-0.93-5.81-1.42l0-2.16l0.16,0.08
			c1.21,0.63,3.32,1.01,5.65,1.01c2.3,0,4.42-0.38,5.65-1.01l0.16-0.08v1.03C17.53,23.41,17.76,23.63,18.03,23.63z M5.91,17.22
			l0.01-0.03c0.01-0.02,0.02-0.04,0.03-0.06c0-0.01,0.01-0.02,0.01-0.03c0.03-0.04,0.04-0.06,0.06-0.08c0,0,0.01-0.02,0.03-0.03
			c0.02-0.02,0.05-0.04,0.07-0.06l0.06-0.05c0.02-0.02,0.05-0.04,0.08-0.05l0.09-0.06c0.05-0.03,0.11-0.06,0.17-0.09l0.31-0.14
			l0.3-0.11c0.52-0.17,1.05-0.3,1.59-0.39l0.07,0c0.14-0.03,0.3-0.05,0.48-0.07l0.03,0c0.09-0.01,0.19-0.02,0.3-0.04l0.25-0.02
			c0.15-0.01,0.31-0.03,0.48-0.04h0.11l0.32-0.01c0.37-0.02,0.71-0.03,1.04-0.02c0.8,0,1.6,0.05,2.39,0.15
			c2.01,0.23,3.3,0.81,3.35,1.23c-0.05,0.52-2.09,1.45-5.81,1.45c-0.34,0-0.66,0-0.97-0.02l-0.38-0.02
			c-0.19-0.01-0.37-0.03-0.55-0.04l-0.07,0c-0.17-0.02-0.33-0.03-0.48-0.05C9.13,18.51,9,18.49,8.87,18.47l-0.1-0.01
			c-1.59-0.28-2.81-0.8-2.85-1.21L5.91,17.22z M17.53,20.75c-0.05,0.5-2.09,1.42-5.81,1.42c-3.71,0-5.75-0.93-5.81-1.42l0-2.15
			l0.16,0.08c1.21,0.63,3.32,1.01,5.65,1.01c2.32,0,4.43-0.38,5.65-1.02l0.16-0.08L17.53,20.75z"/>
		<path class="st0" d="M19.84,36c0.28,0,0.5-0.23,0.5-0.5v-0.46l0.09-0.02c0.9-0.2,1.53-0.98,1.53-1.91c0-0.56-0.26-1.57-2-1.97
			c-0.81-0.19-1.22-0.52-1.22-0.99c0-0.67,0.58-0.98,1.11-0.98c0,0,0,0,0,0c0.45,0,0.85,0.27,1.02,0.68
			c0.05,0.12,0.15,0.21,0.28,0.26c0.12,0.05,0.26,0.04,0.38-0.01c0.24-0.11,0.36-0.39,0.26-0.64c-0.25-0.59-0.75-1.04-1.37-1.21
			l-0.08-0.02v-0.47c0-0.28-0.23-0.5-0.5-0.5s-0.5,0.23-0.5,0.5v0.48l-0.09,0.02c-0.89,0.2-1.53,1-1.52,1.91
			c0,0.56,0.26,1.57,2,1.96h0c0.81,0.19,1.22,0.52,1.22,0.99c0,0.67-0.58,0.98-1.11,0.98c-0.45,0-0.85-0.27-1.02-0.68
			c-0.08-0.18-0.27-0.29-0.46-0.29c-0.07,0-0.14,0.01-0.21,0.04c-0.24,0.11-0.36,0.39-0.26,0.64c0.25,0.59,0.75,1.04,1.37,1.21
			l0.08,0.02v0.46C19.34,35.77,19.57,36,19.84,36z"/>
	</g>
	<path class="st0" d="M35.27,17.43c-0.27-0.04-0.53,0.14-0.57,0.42l-0.53,3.39l-8.09-10.71c-0.16-0.22-0.47-0.26-0.69-0.1
		l-3.16,2.27l-4.38-5.8c-0.17-0.22-0.48-0.27-0.7-0.1c-0.22,0.17-0.26,0.48-0.1,0.7l4.67,6.19c0.16,0.22,0.47,0.26,0.69,0.1
		l3.16-2.27l7.78,10.31l-3.35-0.52c-0.27-0.04-0.53,0.14-0.57,0.42c-0.04,0.27,0.14,0.53,0.42,0.57L34.41,23
		c0.03,0,0.05,0.01,0.08,0.01c0.11,0,0.21-0.03,0.29-0.1c0.11-0.08,0.18-0.2,0.2-0.33L35.69,18C35.73,17.73,35.55,17.47,35.27,17.43
		z"/>
</g>
</svg>
