<?xml version="1.0" encoding="utf-8"?>
<!-- Generator: Adobe Illustrator 24.2.0, SVG Export Plug-In . SVG Version: 6.00 Build 0)  -->
<svg version="1.1" id="Layer_1" xmlns="http://www.w3.org/2000/svg" xmlns:xlink="http://www.w3.org/1999/xlink" x="0px" y="0px"
	 viewBox="0 0 40 40" style="enable-background:new 0 0 40 40;" xml:space="preserve">
<style type="text/css">
	.st0{fill:#010101;}
	.st1{fill:#FBB040;}
	.st2{opacity:0.37;fill:#FBB040;}
	.st3{fill-rule:evenodd;clip-rule:evenodd;fill:#010101;}
	.st4{clip-path:url(#SVGID_2_);}
	.st5{fill:none;}
	.st6{fill:#FFFFFF;}
	.st7{fill-rule:evenodd;clip-rule:evenodd;fill:none;stroke:#000000;stroke-miterlimit:10;}
	.st8{fill:none;stroke:#000000;stroke-width:1.4;stroke-linecap:round;stroke-miterlimit:10;}
	.st9{fill:#ED1C24;}
	.st10{fill:none;stroke:#010101;stroke-linecap:round;stroke-miterlimit:10;}
	
		.st11{fill-rule:evenodd;clip-rule:evenodd;fill:none;stroke:#000000;stroke-linecap:round;stroke-linejoin:round;stroke-miterlimit:10;}
	.st12{fill:none;stroke:#000000;stroke-linecap:round;stroke-linejoin:round;stroke-miterlimit:10;}
	.st13{fill:#010101;stroke:#FFFFFF;stroke-width:0.7;stroke-miterlimit:10;}
	.st14{fill:#EC008C;}
	.st15{fill:#E23E96;}
</style>
<g>
	<g>
		<path class="st5" d="M16.53,13.05c0-0.33-0.28-0.61-0.61-0.61h-3.91c-0.34,0-0.61,0.27-0.61,0.61l0,1.48h5.13V13.05z"/>
		<rect x="12.87" y="22.61" class="st5" width="2.19" height="1.42"/>
		<path class="st5" d="M16.07,23.56v0.6c0,0.48-0.39,0.88-0.88,0.88h-2.44c-0.48,0-0.88-0.39-0.88-0.88v-0.59
			C9.5,23.43,7.3,23,5.33,22.29v6.92c0,0.1,0.08,0.18,0.18,0.18H19.8l2.81-4.68v-2.51C20.67,22.95,18.47,23.41,16.07,23.56z"/>
		<path class="st5" d="M11.87,22.49c0-0.48,0.39-0.88,0.88-0.88h2.44c0.48,0,0.88,0.39,0.88,0.88v0.07
			c2.88-0.19,5.42-0.82,7.53-1.88l-0.01-4.95c0-0.1-0.08-0.18-0.18-0.18H4.53c-0.09,0-0.18,0.08-0.18,0.18L4.34,20.8
			c2.17,1,4.7,1.59,7.53,1.76V22.49z"/>
		<path d="M5.51,29.39c-0.1,0-0.18-0.08-0.18-0.18v-6.92C7.3,23,9.5,23.43,11.87,23.57v0.59c0,0.48,0.39,0.88,0.88,0.88h2.44
			c0.48,0,0.88-0.39,0.88-0.88v-0.6c2.41-0.15,4.61-0.61,6.54-1.35v2.51l1-1.67v-1.26c0.27-0.12,0.51-0.24,0.73-0.36
			c0.17-0.09,0.27-0.26,0.27-0.44l-0.01-5.26c0-0.65-0.53-1.18-1.18-1.18h-5.87v-1.48c0-0.89-0.72-1.61-1.61-1.61l-3.91,0
			c-0.89,0-1.61,0.72-1.61,1.61v1.48l-5.87,0c-0.65,0-1.18,0.53-1.18,1.18l-0.01,5.4c0,0.19,0.11,0.37,0.28,0.45
			c0.23,0.11,0.46,0.21,0.71,0.32v7.32c0,0.65,0.53,1.18,1.18,1.18H19.2l0.6-1H5.51z M15.06,24.03h-2.19v-1.42h2.19V24.03z
			 M11.4,13.05c0-0.34,0.27-0.61,0.61-0.61h3.91c0.33,0,0.61,0.28,0.61,0.61v1.48H11.4L11.4,13.05z M4.34,20.8l0.01-5.08
			c0-0.09,0.08-0.18,0.18-0.18h18.88c0.1,0,0.18,0.08,0.18,0.18l0.01,4.95c-2.12,1.06-4.65,1.69-7.53,1.88v-0.07
			c0-0.48-0.39-0.88-0.88-0.88h-2.44c-0.48,0-0.88,0.39-0.88,0.88v0.08C9.04,22.4,6.51,21.8,4.34,20.8z"/>
	</g>
	<g>
		<path class="st0" d="M36.59,38.36L36.5,38.2v0l-9.31-15.52c-0.09-0.16-0.27-0.25-0.45-0.25s-0.35,0.1-0.45,0.25l-9.4,15.67
			c-0.1,0.16-0.1,0.36-0.01,0.53c0.09,0.16,0.27,0.27,0.46,0.27h18.8c0.19,0,0.36-0.1,0.46-0.27
			C36.69,38.72,36.69,38.52,36.59,38.36z M18.26,38.1l8.48-14.13l8.48,14.13H18.26z"/>
		<path class="st0" d="M26.22,28.44v3.92c0,0.29,0.23,0.52,0.52,0.52s0.52-0.23,0.52-0.52v-3.92c0-0.29-0.23-0.52-0.52-0.52
			S26.22,28.15,26.22,28.44z"/>
		<path class="st0" d="M26.74,34.19c-0.29,0-0.52,0.23-0.52,0.52v0.78c0,0.29,0.23,0.52,0.52,0.52s0.52-0.23,0.52-0.52v-0.78
			C27.26,34.42,27.03,34.19,26.74,34.19z"/>
	</g>
	<path d="M19.8,29.39h-0.83v1h0.83c0.28,0,0.5-0.22,0.5-0.5S20.08,29.39,19.8,29.39z"/>
	<path d="M22.6,22.78v1.97c0,0.28,0.22,0.5,0.5,0.5c0.28,0,0.5-0.22,0.5-0.5v-1.97H22.6z"/>
</g>
</svg>
