<?xml version="1.0" encoding="utf-8"?>
<!-- Generator: Adobe Illustrator 24.2.0, SVG Export Plug-In . SVG Version: 6.00 Build 0)  -->
<svg version="1.1" id="Layer_1" xmlns="http://www.w3.org/2000/svg" xmlns:xlink="http://www.w3.org/1999/xlink" x="0px" y="0px"
	 viewBox="0 0 40 40" style="enable-background:new 0 0 40 40;" xml:space="preserve">
<style type="text/css">
	.st0{fill:#010101;}
	.st1{fill-rule:evenodd;clip-rule:evenodd;fill:#010101;}
	.st2{clip-path:url(#SVGID_2_);}
	.st3{fill:none;}
</style>
<g>
	<g>
		<path class="st0" d="M5.21,34.7c0,0.82,0.33,1.6,0.9,2.18c0.58,0.58,1.36,0.9,2.18,0.9h23.42c0.82,0,1.6-0.33,2.18-0.9
			c0.58-0.58,0.9-1.36,0.9-2.18V22.99c0-0.82-0.33-1.6-0.9-2.18c-0.58-0.58-1.36-0.9-2.18-0.9h-3.08v-3.08h5.55
			c0.34,0,0.62-0.28,0.62-0.62c0-0.34-0.28-0.62-0.62-0.62h-5.55V6.35c0-0.82-0.33-1.6-0.9-2.18c-0.58-0.58-1.36-0.9-2.18-0.9h-9.86
			c-1.7,0-3.08,1.38-3.08,3.08v9.25H7.98c-1.53,0-2.77,1.24-2.77,2.77v0.2c0,0.04,0,0.07,0,0.1L5.21,34.7z M33.56,29.77h-4.37
			c0.11-0.62,0.06-1.26-0.16-1.85h4.53L33.56,29.77z M13.84,6.35c0-1.02,0.83-1.85,1.85-1.85h9.86c1.02,0,1.85,0.83,1.85,1.85v13.56
			H13.84V6.35z M7.98,16.83h4.62v3.08H7.98c-0.85,0-1.54-0.69-1.54-1.54S7.13,16.83,7.98,16.83L7.98,16.83z M6.44,20.67
			c0.46,0.31,0.99,0.47,1.54,0.47h23.73c1.02,0,1.85,0.83,1.85,1.85v3.7h-4.93c-0.09,0-0.19,0.02-0.27,0.07
			c-1.04-1.23-2.76-1.63-4.25-1.01c-1.49,0.62-2.39,2.14-2.25,3.74c0.15,1.61,1.32,2.93,2.89,3.28c1.57,0.35,3.19-0.37,4-1.76h4.81
			v3.7c0,1.02-0.83,1.85-1.85,1.85H8.29c-1.02,0-1.85-0.83-1.85-1.85L6.44,20.67z M28.01,29.15c0,1-0.6,1.9-1.52,2.28
			c-0.92,0.38-1.98,0.17-2.69-0.53c-0.71-0.7-0.92-1.76-0.53-2.69c0.38-0.92,1.28-1.52,2.28-1.52c0.65,0,1.28,0.26,1.74,0.72
			S28.01,28.5,28.01,29.15L28.01,29.15z"/>
		<path class="st0" d="M20.62,8.81c0.33,0,0.64,0.13,0.87,0.36c0.23,0.23,0.36,0.55,0.36,0.87c0,0.34,0.28,0.62,0.62,0.62
			c0.34,0,0.62-0.28,0.62-0.62c0-1.12-0.76-2.1-1.85-2.38V6.72c0-0.34-0.28-0.62-0.62-0.62C20.28,6.1,20,6.38,20,6.72v0.95
			c-1.19,0.32-1.96,1.47-1.8,2.69s1.19,2.14,2.42,2.15c0.5,0,0.95,0.3,1.14,0.76c0.19,0.46,0.08,0.99-0.27,1.34
			c-0.35,0.35-0.88,0.46-1.34,0.27c-0.46-0.19-0.76-0.64-0.76-1.14c0-0.34-0.28-0.62-0.62-0.62c-0.34,0-0.62,0.28-0.62,0.62
			c0,1.12,0.76,2.1,1.85,2.38v0.95c0,0.34,0.28,0.62,0.62,0.62c0.34,0,0.62-0.28,0.62-0.62v-0.95c1.19-0.32,1.96-1.47,1.8-2.69
			s-1.19-2.14-2.42-2.15c-0.68,0-1.23-0.55-1.23-1.23S19.94,8.81,20.62,8.81L20.62,8.81z"/>
	</g>
</g>
</svg>
