<?xml version="1.0" encoding="utf-8"?>
<!-- Generator: Adobe Illustrator 24.2.0, SVG Export Plug-In . SVG Version: 6.00 Build 0)  -->
<svg version="1.1" id="Layer_1" xmlns="http://www.w3.org/2000/svg" xmlns:xlink="http://www.w3.org/1999/xlink" x="0px" y="0px"
	 viewBox="0 0 40 40" style="enable-background:new 0 0 40 40;" xml:space="preserve">
<style type="text/css">
	.st0{fill:#010101;}
	.st1{fill:#FBB040;}
	.st2{opacity:0.37;fill:#FBB040;}
	.st3{fill-rule:evenodd;clip-rule:evenodd;fill:#010101;}
	.st4{clip-path:url(#SVGID_2_);}
	.st5{fill:none;}
	.st6{fill:#FFFFFF;}
	.st7{fill-rule:evenodd;clip-rule:evenodd;fill:none;stroke:#000000;stroke-miterlimit:10;}
	.st8{fill:none;stroke:#000000;stroke-width:1.4;stroke-linecap:round;stroke-miterlimit:10;}
	.st9{fill:#ED1C24;}
	.st10{fill:none;stroke:#010101;stroke-linecap:round;stroke-miterlimit:10;}
	
		.st11{fill-rule:evenodd;clip-rule:evenodd;fill:none;stroke:#000000;stroke-linecap:round;stroke-linejoin:round;stroke-miterlimit:10;}
	.st12{fill:none;stroke:#000000;stroke-linecap:round;stroke-linejoin:round;stroke-miterlimit:10;}
	.st13{fill:#010101;stroke:#FFFFFF;stroke-width:0.7;stroke-miterlimit:10;}
	.st14{fill:#EC008C;}
	.st15{fill:#E23E96;}
</style>
<g>
	<path d="M33.21,14.07c-0.09-0.18-0.27-0.3-0.47-0.3h-4.19L32.03,7c0.09-0.16,0.09-0.36-0.01-0.53c-0.1-0.16-0.28-0.25-0.45-0.24
		l-8.24,0c-0.24-0.01-0.45,0.13-0.52,0.35L19.05,17.9c-0.05,0.16-0.02,0.33,0.07,0.47c0.1,0.14,0.26,0.22,0.42,0.22h4.91l-3.51,9.56
		c-0.09,0.24,0.01,0.51,0.23,0.64c0.08,0.04,0.16,0.06,0.26,0.07c0.15,0,0.3-0.07,0.4-0.19l11.31-14.03
		C33.27,14.47,33.3,14.25,33.21,14.07z M25.63,17.77c-0.1-0.14-0.25-0.23-0.43-0.23h-4.93l3.42-10.27h7.02l-3.49,6.78
		c-0.08,0.16-0.07,0.35,0.02,0.5c0.09,0.16,0.26,0.25,0.44,0.25h3.96l-8.64,10.72l2.68-7.29C25.75,18.09,25.73,17.91,25.63,17.77z"
		/>
	<path d="M31.43,23.88c0.39,0.31,0.87,0.47,1.36,0.47c0,0,0,0,0,0c1.22,0,2.21-0.99,2.22-2.21c0-0.69-0.31-1.32-0.85-1.75
		l-1.71-1.34l0,0.01c-0.08-0.06-0.18-0.1-0.29-0.1c-0.28,0-0.51,0.23-0.51,0.51c0,0.15,0.07,0.28,0.17,0.38l0,0l1.72,1.35
		c0.52,0.41,0.61,1.16,0.2,1.68c-0.2,0.25-0.49,0.41-0.8,0.45c-0.05,0.01-0.1,0.01-0.14,0.01c-0.27,0-0.53-0.09-0.74-0.26
		l-1.69-1.33c-0.01-0.01-0.03-0.02-0.04-0.03l0,0l0,0c-0.09-0.07-0.2-0.12-0.32-0.12c-0.28,0-0.51,0.23-0.51,0.51
		c0,0.16,0.08,0.3,0.2,0.39l-0.01,0.01l0.65,0.51l0.01,0.01v14.6H9.65v-14.6l7.23-5.68c0-0.01,0-0.01,0-0.02l1.18-0.94
		c0.22-0.17,0.25-0.49,0.08-0.71c-0.17-0.22-0.49-0.25-0.71-0.08l-1.17,0.93l-8.33,6.54c-0.25,0.2-0.57,0.29-0.88,0.25
		c-0.32-0.04-0.6-0.2-0.8-0.45c-0.41-0.52-0.32-1.27,0.2-1.68l4.06-3.19c0.12-0.1,0.19-0.24,0.19-0.4v-6.1h2.25v3.54
		c0,0.28,0.23,0.51,0.51,0.51c0.11,0,0.23-0.04,0.31-0.11l5.03-3.95l0.01-0.02l0.81-0.64c0.22-0.17,0.25-0.49,0.08-0.71
		c-0.17-0.22-0.49-0.25-0.71-0.08l-1.01,0.8l0,0l-3.96,3.11L13.98,14v-2.49h0.1c0.28,0,0.51-0.23,0.51-0.51
		c0-0.28-0.23-0.51-0.51-0.51H9.59c-0.28,0-0.51,0.23-0.51,0.51c0,0.28,0.23,0.51,0.51,0.51h0.1v5.85L5.83,20.4
		c-0.96,0.75-1.13,2.15-0.37,3.11c0.76,0.96,2.15,1.13,3.11,0.37l0.07-0.06v13.8H6.97c-0.28,0-0.51,0.23-0.51,0.51
		s0.23,0.51,0.51,0.51h26.05c0.28,0,0.51-0.23,0.51-0.51s-0.23-0.51-0.51-0.51h-1.66v-13.8L31.43,23.88z"/>
</g>
</svg>
