<?xml version="1.0" encoding="utf-8"?>
<!-- Generator: Adobe Illustrator 24.2.0, SVG Export Plug-In . SVG Version: 6.00 Build 0)  -->
<svg version="1.1" id="Layer_1" xmlns="http://www.w3.org/2000/svg" xmlns:xlink="http://www.w3.org/1999/xlink" x="0px" y="0px"
	 viewBox="0 0 40 40" style="enable-background:new 0 0 40 40;" xml:space="preserve">
<style type="text/css">
	.st0{fill:#010101;}
	.st1{fill:#FBB040;}
	.st2{opacity:0.37;fill:#FBB040;}
	.st3{fill-rule:evenodd;clip-rule:evenodd;fill:#010101;}
	.st4{clip-path:url(#SVGID_2_);}
	.st5{fill:none;}
	.st6{fill:#FFFFFF;}
	.st7{fill-rule:evenodd;clip-rule:evenodd;fill:none;stroke:#000000;stroke-miterlimit:10;}
	.st8{fill:none;stroke:#000000;stroke-width:1.4;stroke-linecap:round;stroke-miterlimit:10;}
	.st9{fill:#ED1C24;}
	.st10{fill:none;stroke:#010101;stroke-linecap:round;stroke-miterlimit:10;}
</style>
<g>
	<path class="st0" d="M29.27,18.54c0.86,0.86,2.14,1.11,3.26,0.65c1.12-0.46,1.85-1.55,1.85-2.76c0-1.65-1.34-2.99-2.99-2.99
		c-1.21,0-2.3,0.72-2.76,1.85S28.41,17.69,29.27,18.54z M29.98,15.02c0.57-0.57,1.42-0.74,2.17-0.43c0.75,0.31,1.23,1.03,1.23,1.84
		c0,1.1-0.9,1.99-1.99,1.99h0c-0.81,0-1.53-0.48-1.84-1.23C29.24,16.45,29.41,15.59,29.98,15.02z"/>
	<path class="st0" d="M26.12,25.37c0-0.28-0.22-0.5-0.5-0.5H14.06c-0.28,0-0.5,0.22-0.5,0.5s0.22,0.5,0.5,0.5h5.29v12.46
		c0,0.28,0.22,0.5,0.5,0.5s0.5-0.22,0.5-0.5V25.87h5.27C25.9,25.87,26.12,25.65,26.12,25.37z"/>
	<path class="st0" d="M23.7,38.83h3.06c0.13,0,0.26-0.05,0.35-0.15c0.09-0.09,0.15-0.22,0.15-0.35v-6.04h4.22c1.6,0,2.9-1.3,2.9-2.9
		v-5.55c0-0.8-0.33-1.57-0.9-2.13c-0.57-0.56-1.37-0.87-2.15-0.85v0c-1.62,0.05-2.91,1.36-2.92,2.98v4.27h-3.2c-1.1,0-2,0.9-2,2
		v8.21c0,0.13,0.05,0.26,0.15,0.35C23.44,38.78,23.57,38.83,23.7,38.83z M24.2,30.12c0-0.26,0.1-0.52,0.29-0.71
		c0.19-0.19,0.44-0.29,0.71-0.29h3.7c0.13,0,0.26-0.05,0.35-0.15c0.09-0.09,0.15-0.22,0.15-0.35v-4.78c0-0.8,0.48-1.52,1.22-1.83
		c0.74-0.31,1.59-0.15,2.16,0.41c0.38,0.37,0.6,0.89,0.6,1.43l0.01,5.55c0,1.05-0.85,1.9-1.9,1.9h-4.72c-0.28,0-0.5,0.22-0.5,0.5
		v6.04H24.2V30.12z"/>
	<path class="st0" d="M19.84,9.48c-1.21,0-2.3,0.72-2.76,1.85c-0.46,1.12-0.21,2.4,0.65,3.26c0.86,0.86,2.14,1.11,3.26,0.65
		c1.12-0.46,1.85-1.55,1.85-2.76C22.82,10.82,21.48,9.48,19.84,9.48z M19.84,14.46L19.84,14.46c-0.81,0-1.53-0.48-1.84-1.23
		c-0.31-0.74-0.14-1.59,0.43-2.17c0.57-0.57,1.42-0.74,2.17-0.43c0.75,0.31,1.23,1.03,1.23,1.84
		C21.82,13.56,20.93,14.45,19.84,14.46z"/>
	<path class="st0" d="M14.98,22.36c0,0.28,0.22,0.5,0.5,0.5s0.5-0.22,0.5-0.5v-1.99c0-1.35,1.1-2.45,2.45-2.46h2.8
		c0,0,0.01,0,0.01,0c0.64,0,1.28,0.26,1.73,0.71c0.46,0.46,0.73,1.09,0.73,1.74v1.99c0,0.28,0.22,0.5,0.5,0.5s0.5-0.22,0.5-0.5
		v-1.99c0-0.91-0.37-1.8-1.02-2.45c-0.65-0.65-1.52-1.01-2.44-1.01c0,0-0.01,0-0.01,0h-2.8c-1.9,0-3.45,1.55-3.46,3.46V22.36z"/>
	<path class="st0" d="M14.8,28.12h-3.2v-4.28c-0.01-1.62-1.3-2.93-2.92-2.98c-0.02,0-0.05,0-0.07,0c-0.77,0-1.53,0.31-2.08,0.85
		c-0.57,0.56-0.9,1.33-0.9,2.13v5.55c0,1.6,1.3,2.9,2.9,2.9h4.22v6.04c0,0.13,0.05,0.26,0.15,0.35c0.09,0.09,0.22,0.15,0.35,0.15
		h3.06c0.13,0,0.26-0.05,0.35-0.15s0.15-0.22,0.15-0.35v-8.21C16.8,29.02,15.91,28.12,14.8,28.12z M15.8,37.83h-2.05v-6.04
		c0-0.13-0.05-0.26-0.15-0.35c-0.09-0.09-0.22-0.15-0.35-0.15H8.52c-1.05,0-1.9-0.85-1.9-1.9v-5.55c0-0.53,0.22-1.05,0.6-1.42
		c0.38-0.37,0.89-0.59,1.44-0.57c1.08,0.03,1.94,0.9,1.94,1.99v4.78c0,0.13,0.05,0.26,0.15,0.35c0.09,0.09,0.22,0.15,0.35,0.15h3.7
		c0.26,0,0.52,0.11,0.71,0.29c0.19,0.19,0.29,0.44,0.29,0.7V37.83z"/>
	<path class="st0" d="M5.62,16.43c0,1.65,1.34,2.99,2.99,2.99c1.21,0,2.3-0.72,2.76-1.85c0.46-1.12,0.21-2.4-0.65-3.26
		c-0.57-0.57-1.34-0.88-2.11-0.88c-0.39,0-0.78,0.08-1.15,0.23C6.35,14.13,5.62,15.22,5.62,16.43z M8.61,14.44L8.61,14.44
		c0.81,0,1.53,0.48,1.84,1.23c0.31,0.75,0.14,1.6-0.43,2.17c-0.38,0.38-0.89,0.58-1.41,0.58c-0.26,0-0.52-0.05-0.76-0.15
		c-0.75-0.31-1.23-1.03-1.23-1.84C6.63,15.33,7.52,14.44,8.61,14.44z"/>
</g>
</svg>
